<svg width="720" height="720" viewBox="0 0 720 720" fill="none" xmlns="http://www.w3.org/2000/svg">
<path d="M619.488 554.256H100.512C99.9359 554.256 99.5039 553.824 99.5039 553.248C99.5039 552.672 99.9359 552.24 100.512 552.24H619.632C620.208 552.24 620.64 552.672 620.64 553.248C620.64 553.824 620.064 554.256 619.488 554.256Z" fill="#D1D3D4"/>
<path d="M340.417 476.352C339.265 476.352 338.401 475.488 338.401 474.336V463.68C338.401 461.52 336.673 459.792 334.513 459.792H291.889C289.729 459.792 288.001 461.52 288.001 463.68V474.48C288.001 475.632 287.137 476.496 285.985 476.496C284.833 476.496 283.969 475.632 283.969 474.48V463.68C283.969 459.36 287.569 455.76 291.889 455.76H334.513C338.833 455.76 342.433 459.36 342.433 463.68V474.48C342.433 475.488 341.569 476.352 340.417 476.352Z" fill="#D1D3D4"/>
<path d="M236.448 474.336H390.096C395.568 474.336 399.888 478.656 399.888 484.128V586.656C399.888 592.128 395.568 596.448 390.096 596.448H236.448C230.976 596.448 226.656 592.128 226.656 586.656V484.128C226.656 478.8 230.976 474.336 236.448 474.336Z" fill="white"/>
<path d="M390.096 597.6H236.448C230.544 597.6 225.648 592.704 225.648 586.8V484.128C225.648 478.224 230.544 473.328 236.448 473.328H390.096C396 473.328 400.896 478.224 400.896 484.128V586.656C400.896 592.704 396.144 597.6 390.096 597.6ZM236.448 475.344C231.552 475.344 227.664 479.232 227.664 484.128V586.656C227.664 591.552 231.552 595.44 236.448 595.44H390.096C394.992 595.44 398.88 591.552 398.88 586.656V484.128C398.88 479.232 394.992 475.344 390.096 475.344H236.448Z" fill="#D1D3D4"/>
<path d="M268.56 471.456H272.016C274.176 471.456 275.904 473.184 275.904 475.344V595.44C275.904 597.6 274.176 599.328 272.016 599.328H268.56C266.4 599.328 264.672 597.6 264.672 595.44V475.344C264.672 473.184 266.4 471.456 268.56 471.456Z" fill="white"/>
<path d="M272.017 600.48H268.561C265.825 600.48 263.665 598.32 263.665 595.584V475.488C263.665 472.752 265.825 470.592 268.561 470.592H272.017C274.753 470.592 276.913 472.752 276.913 475.488V595.584C276.913 598.32 274.753 600.48 272.017 600.48ZM268.561 472.464C266.977 472.464 265.681 473.76 265.681 475.344V595.44C265.681 597.024 266.977 598.32 268.561 598.32H272.017C273.601 598.32 274.897 597.024 274.897 595.44V475.344C274.897 473.76 273.601 472.464 272.017 472.464H268.561Z" fill="#D1D3D4"/>
<path d="M356.688 471.456H360.144C362.304 471.456 364.032 473.184 364.032 475.344V595.44C364.032 597.6 362.304 599.328 360.144 599.328H356.688C354.528 599.328 352.8 597.6 352.8 595.44V475.344C352.8 473.184 354.528 471.456 356.688 471.456Z" fill="white"/>
<path d="M360.144 600.48H356.688C353.952 600.48 351.792 598.32 351.792 595.584V475.488C351.792 472.752 353.952 470.592 356.688 470.592H360.144C362.88 470.592 365.04 472.752 365.04 475.488V595.584C365.04 598.32 362.88 600.48 360.144 600.48ZM356.688 472.464C355.104 472.464 353.808 473.76 353.808 475.344V595.44C353.808 597.024 355.104 598.32 356.688 598.32H360.144C361.728 598.32 363.024 597.024 363.024 595.44V475.344C363.024 473.76 361.728 472.464 360.144 472.464H356.688Z" fill="#D1D3D4"/>
<path d="M305.569 548.064C312.011 548.064 317.233 542.842 317.233 536.4C317.233 529.958 312.011 524.736 305.569 524.736C299.127 524.736 293.905 529.958 293.905 536.4C293.905 542.842 299.127 548.064 305.569 548.064Z" fill="white"/>
<path d="M305.568 549.216C298.512 549.216 292.896 543.456 292.896 536.544C292.896 529.488 298.656 523.872 305.568 523.872C312.624 523.872 318.24 529.632 318.24 536.544C318.24 543.456 312.624 549.216 305.568 549.216ZM305.568 525.744C299.664 525.744 294.912 530.496 294.912 536.4C294.912 542.304 299.664 547.056 305.568 547.056C311.472 547.056 316.225 542.304 316.225 536.4C316.225 530.496 311.472 525.744 305.568 525.744Z" fill="#D1D3D4"/>
<path d="M337.751 551.708L302.76 565.021L309.929 583.863L344.92 570.549L337.751 551.708Z" fill="white"/>
<path d="M309.889 584.928C309.457 584.928 309.169 584.64 309.025 584.208L301.825 565.344C301.681 565.056 301.681 564.768 301.825 564.624C301.969 564.336 302.113 564.192 302.401 564.048L337.393 550.8C337.969 550.656 338.545 550.8 338.689 551.376L345.889 570.24C346.033 570.528 346.033 570.816 345.889 570.96C345.745 571.248 345.601 571.392 345.313 571.536L310.321 584.784C310.177 584.928 310.033 584.928 309.889 584.928ZM304.129 565.632L310.609 582.624L343.729 569.952L337.249 552.96L304.129 565.632Z" fill="#D1D3D4"/>
<path d="M344.592 513.072L316.512 518.976L310.608 490.896L344.592 513.072Z" fill="white"/>
<path d="M316.513 519.984C316.081 519.984 315.649 519.696 315.505 519.12L309.601 491.04C309.457 490.608 309.745 490.176 310.033 490.032C310.321 489.744 310.753 489.744 311.185 490.032L345.025 512.208C345.313 512.496 345.601 512.784 345.457 513.216C345.457 513.648 345.025 513.936 344.737 513.936L316.801 519.84L316.513 519.984ZM312.193 493.056L317.377 517.68L342.001 512.64L312.193 493.056Z" fill="#D1D3D4"/>
<path d="M562.032 591.84L553.248 599.472L546.336 594.288L543.168 568.8L561.744 564.768L562.032 591.84Z" fill="white"/>
<path d="M561.744 564.768L562.032 591.84L553.248 599.328L546.192 594.144L543.024 568.656L561.744 564.768ZM561.744 562.752C561.6 562.752 561.456 562.752 561.312 562.752L542.736 566.784C541.728 567.072 541.008 567.936 541.152 568.944L544.32 594.432C544.32 595.008 544.608 595.584 545.184 595.872L552.24 601.056C552.528 601.344 552.96 601.488 553.392 601.488C553.824 601.488 554.4 601.344 554.688 601.056L563.472 593.568C563.904 593.136 564.192 592.56 564.192 591.984L563.904 564.912C563.76 563.76 562.896 562.896 561.744 562.752Z" fill="#171717"/>
<path d="M563.473 590.256C563.473 590.256 552.529 597.888 544.753 591.696C544.753 591.696 518.833 589.392 515.809 607.104H563.761L563.473 590.256Z" fill="#171717"/>
<path d="M563.76 608.112H515.808C515.52 608.112 515.232 607.968 515.088 607.824C514.944 607.536 514.8 607.248 514.944 606.96C517.968 588.528 544.608 590.688 544.896 590.688C545.04 590.688 545.328 590.832 545.472 590.832C552.672 596.592 562.896 589.536 563.04 589.392C563.472 589.104 564.192 589.248 564.48 589.68C564.624 589.824 564.624 589.968 564.624 590.256L564.912 607.104C564.912 607.392 564.768 607.68 564.624 607.824C564.336 607.968 564.048 608.112 563.76 608.112ZM517.104 606.096H562.896L562.608 592.128C559.152 594 550.944 597.744 544.464 592.704C541.584 592.416 520.56 591.696 517.104 606.096Z" fill="#171717"/>
<path d="M472.464 591.84L464.832 599.472L457.776 594.288L454.608 568.8L475.2 564.768L472.464 591.84Z" fill="white"/>
<path d="M475.2 564.768L472.32 591.84L464.688 599.328L457.632 594.144L454.608 568.656L475.2 564.768ZM475.2 562.752C475.056 562.752 474.912 562.752 474.768 562.752L454.032 566.784C453.024 566.928 452.304 567.936 452.448 568.944L455.616 594.288C455.616 594.864 455.904 595.44 456.48 595.728L463.536 600.912C463.824 601.2 464.256 601.344 464.688 601.344C465.264 601.344 465.696 601.2 466.128 600.768L473.76 593.28C474.048 592.992 474.336 592.56 474.336 591.984L477.216 564.912C477.36 563.76 476.496 562.752 475.344 562.752C475.488 562.752 475.344 562.752 475.2 562.752Z" fill="#171717"/>
<path d="M555.84 351.072L566.208 578.304L538.848 578.016L501.264 425.664L480.24 577.44L449.856 577.152L440.352 353.664L555.84 351.072Z" fill="#171717"/>
<path d="M566.208 579.168L538.704 578.88C538.272 578.88 537.84 578.592 537.696 578.16L501.408 430.992L481.104 577.584C481.104 578.016 480.672 578.448 480.096 578.448L449.712 578.16C449.136 578.16 448.704 577.728 448.704 577.152L439.2 353.808C439.2 353.52 439.344 353.232 439.488 353.088C439.632 352.944 439.92 352.8 440.208 352.8L555.696 350.208C556.272 350.208 556.704 350.64 556.704 351.216L567.072 578.304C567.072 578.592 566.928 578.88 566.784 579.024C566.784 579.168 566.496 579.312 566.208 579.168ZM539.568 577.008L565.2 577.296L554.832 352.224L441.216 354.816L450.72 576.288L479.376 576.576L500.256 425.664C500.256 425.232 500.688 424.8 501.12 424.8C501.552 424.8 501.984 425.088 502.128 425.52L539.568 577.008Z" fill="#171717"/>
<path d="M490.177 171.504C506.322 171.504 519.409 158.416 519.409 142.272C519.409 126.128 506.322 113.04 490.177 113.04C474.033 113.04 460.945 126.128 460.945 142.272C460.945 158.416 474.033 171.504 490.177 171.504Z" fill="white"/>
<path d="M490.177 172.512H489.889C473.041 172.368 459.505 158.688 459.505 141.84C459.505 124.992 473.329 111.456 490.177 111.456C507.025 111.6 520.561 125.28 520.561 142.128C520.417 158.976 506.881 172.512 490.177 172.512ZM490.177 114.048C474.625 113.904 461.953 126.576 461.809 142.128C461.665 157.68 474.337 170.352 489.889 170.496H490.177C505.729 170.64 518.401 157.968 518.545 142.416C518.689 126.864 506.017 114.192 490.465 114.048H490.177Z" fill="#171717"/>
<path d="M528.431 153.044C530.638 143.025 515.049 131.076 493.613 126.354C472.177 121.633 453.01 125.927 450.803 135.946C448.597 145.966 464.185 157.915 485.622 162.637C507.058 167.358 526.225 163.064 528.431 153.044Z" fill="#171717"/>
<path d="M502.704 165.6C496.944 165.6 491.04 164.88 485.424 163.584C463.104 158.688 447.408 146.448 449.856 135.648C452.304 124.848 471.6 120.384 493.92 125.28C516.24 130.176 531.792 142.416 529.488 153.216C527.76 160.992 517.104 165.6 502.704 165.6ZM476.64 125.424C463.392 125.424 453.312 129.456 451.872 136.224C449.712 145.728 465.12 157.104 485.856 161.712C506.592 166.32 525.456 162.288 527.472 152.928C529.632 143.424 514.224 132.048 493.344 127.44C488.016 126 482.256 125.424 476.64 125.424Z" fill="#171717"/>
<path d="M460.224 142.992C460.512 142.272 460.8 141.552 461.088 140.832C464.688 132.624 478.656 132.048 486.288 132.624C493.344 133.056 500.4 134.64 506.304 138.672C511.056 141.84 516.096 147.456 516.528 153.36C516.96 159.264 514.8 166.896 512.928 172.368C511.92 175.68 510.192 178.848 507.744 181.296C505.008 183.456 501.984 184.896 498.528 185.616C491.472 187.488 483.84 188.352 476.784 186.192C469.584 183.888 462.384 177.696 460.224 170.208C457.776 161.424 457.2 151.776 460.224 142.992Z" fill="white"/>
<path d="M485.713 188.496C482.545 188.496 479.521 188.064 476.497 187.2C468.433 184.608 461.233 177.696 459.217 170.496C457.201 163.44 455.617 152.928 459.217 142.704C459.505 141.984 459.793 141.12 460.081 140.4C464.257 130.752 481.105 131.184 486.289 131.616C494.785 132.192 501.553 134.208 506.881 137.808C511.489 140.832 516.961 146.736 517.537 153.36C517.969 158.112 516.673 164.592 513.937 172.8C512.929 176.256 511.057 179.568 508.465 182.16C505.729 184.464 502.417 186.048 498.817 186.768C494.497 187.776 490.177 188.496 485.713 188.496ZM461.233 143.424C457.777 153.072 459.361 163.152 461.233 169.92C463.105 176.688 469.585 182.88 477.073 185.184C482.977 187.056 489.889 186.768 498.241 184.608C501.409 183.888 504.433 182.592 507.025 180.432C509.329 177.984 511.057 175.104 511.921 171.936C514.657 164.016 515.809 157.824 515.521 153.36C515.089 147.888 510.337 142.416 505.729 139.392C500.689 136.08 494.353 134.208 486.145 133.632C481.393 133.344 465.697 132.912 462.097 141.264C461.665 141.984 461.377 142.704 461.233 143.424Z" fill="#171717"/>
<path d="M474.049 190.368L475.633 208.224C475.633 208.224 482.689 218.16 493.633 213.696C500.113 210.816 505.009 205.344 507.025 198.432L501.697 166.464C501.697 166.464 492.481 163.296 492.049 144.576C483.409 150.048 473.473 153.216 463.249 153.504C463.249 153.504 461.377 174.096 464.113 182.736C466.849 191.232 474.049 190.368 474.049 190.368Z" fill="white"/>
<path d="M488.016 215.856C479.952 215.856 474.912 208.944 474.768 208.8C474.624 208.656 474.624 208.512 474.624 208.224L473.184 191.376C470.88 191.232 465.408 190.224 463.104 183.024C460.224 174.384 462.096 154.224 462.24 153.36C462.24 152.784 462.672 152.496 463.248 152.352C473.328 152.064 482.976 149.04 491.472 143.568C491.76 143.28 492.192 143.28 492.48 143.424C492.768 143.568 493.056 144 493.056 144.288C493.488 161.856 501.984 165.168 501.984 165.168C502.416 165.312 502.56 165.6 502.704 166.032L508.032 198C508.032 198.144 508.032 198.288 508.032 198.432C506.016 205.632 500.976 211.536 494.064 214.416C492.192 215.424 490.176 215.856 488.016 215.856ZM476.64 207.792C477.792 209.232 483.984 216.576 493.2 212.688C499.392 210.096 504 204.768 505.872 198.432L500.688 167.184C498.672 166.176 491.904 161.712 491.04 146.448C482.832 151.2 473.616 154.08 464.112 154.512C463.824 158.544 462.672 175.104 464.976 182.448C467.424 190.08 473.616 189.504 473.904 189.36C474.192 189.36 474.48 189.36 474.624 189.648C474.768 189.792 474.912 190.08 475.056 190.368L476.64 207.792Z" fill="#171717"/>
<path d="M494.929 166.896C495.073 165.312 495.793 163.728 496.801 162.576C497.809 161.568 499.105 160.56 500.401 159.984C501.121 159.552 501.841 159.264 502.705 159.12C503.281 159.12 503.857 159.264 504.433 159.408C505.729 159.84 506.881 160.704 507.601 161.856C508.033 162.864 508.321 164.016 508.321 165.024C508.321 166.176 508.321 167.472 508.033 168.624C506.881 173.52 501.841 176.544 497.089 175.248H496.945" fill="white"/>
<path d="M499.248 176.544C498.384 176.544 497.52 176.4 496.656 176.256C496.08 176.112 495.792 175.536 495.936 174.96C496.08 174.384 496.656 174.096 497.232 174.24C501.552 175.392 506.016 172.8 507.024 168.48V168.336C507.312 167.184 507.312 166.176 507.312 165.024C507.312 164.016 507.168 163.152 506.736 162.288C506.16 161.28 505.152 160.704 504.144 160.272C503.712 160.128 503.28 159.984 502.848 159.984C502.128 160.128 501.552 160.272 500.976 160.704C499.68 161.28 498.528 162.144 497.664 163.152C496.8 164.16 496.224 165.456 496.08 166.896C496.08 167.472 495.504 167.904 494.928 167.904C494.352 167.904 493.92 167.328 493.92 166.752C494.064 164.88 494.784 163.152 496.08 161.712C497.232 160.56 498.528 159.552 499.968 158.832C500.832 158.256 501.696 157.968 502.704 157.824C503.424 157.824 504.144 157.968 504.864 158.256C506.448 158.688 507.744 159.696 508.608 161.136C509.184 162.288 509.472 163.584 509.472 164.88C509.472 166.176 509.472 167.472 509.184 168.768C508.032 173.376 503.856 176.544 499.248 176.544Z" fill="#171717"/>
<path d="M475.345 199.152C479.665 199.008 483.697 196.848 486.289 193.536C490.465 187.92 489.601 185.184 489.601 185.184C489.601 185.184 482.257 190.944 474.625 190.656L475.345 199.152Z" fill="#171717"/>
<path d="M475.344 200.16C474.768 200.16 474.336 199.728 474.336 199.296L473.616 190.656C473.616 190.368 473.616 190.08 473.904 189.936C474.048 189.648 474.336 189.648 474.624 189.648C481.824 189.936 488.88 184.464 489.024 184.464C489.456 184.176 490.032 184.176 490.464 184.608C490.608 184.752 490.608 184.752 490.608 184.896C490.752 185.184 491.472 188.352 487.152 194.112C484.272 197.712 479.952 199.872 475.344 200.16ZM475.632 191.52L476.208 198C479.808 197.568 483.264 195.696 485.568 192.816C487.008 191.088 488.016 189.216 488.592 187.056C484.704 189.648 480.24 191.088 475.632 191.52Z" fill="#171717"/>
<path d="M476.495 162.144C476.495 162.144 471.599 171.792 473.327 173.232C475.055 174.672 478.799 173.088 478.799 173.088" fill="white"/>
<path d="M475.344 174.816C474.336 174.816 473.472 174.528 472.752 173.952C470.88 172.368 473.328 166.464 475.776 161.712C476.064 161.28 476.64 160.992 477.072 161.28C477.504 161.568 477.792 162.144 477.504 162.576C475.344 167.04 473.76 171.648 474.048 172.512C474.768 173.088 477.072 172.656 478.368 172.08C478.944 171.936 479.52 172.08 479.664 172.656C479.808 173.232 479.664 173.808 479.088 173.952C477.936 174.528 476.64 174.816 475.344 174.816Z" fill="#171717"/>
<path d="M478.368 179.712C478.368 179.712 485.28 181.008 486.288 174.384Z" fill="white"/>
<path d="M479.665 180.864C479.089 180.864 478.657 180.864 478.081 180.72C477.505 180.576 477.217 180.144 477.217 179.568C477.361 178.992 477.793 178.704 478.369 178.704C479.953 178.992 481.681 178.704 483.121 177.84C484.273 176.976 484.993 175.68 485.137 174.24C485.281 173.664 485.713 173.376 486.289 173.376C486.865 173.52 487.153 173.952 487.153 174.528C487.009 176.544 485.857 178.272 484.273 179.424C482.977 180.432 481.393 180.864 479.665 180.864Z" fill="#171717"/>
<path d="M488.101 160.862C488.205 159.674 487.648 158.654 486.856 158.584C486.064 158.514 485.337 159.421 485.232 160.609C485.127 161.797 485.684 162.817 486.476 162.887C487.269 162.957 487.996 162.05 488.101 160.862Z" fill="#171717"/>
<path d="M472.477 162.957C472.582 161.769 472.025 160.749 471.233 160.679C470.441 160.609 469.714 161.516 469.609 162.704C469.504 163.893 470.061 164.913 470.853 164.982C471.646 165.052 472.373 164.146 472.477 162.957Z" fill="#171717"/>
<path d="M486.576 239.616L441.072 252.864L398.016 241.776L357.552 252L313.2 239.328L360.864 350.064L398.736 360L430.416 347.76L464.112 360.72L492.192 351.36L486.576 239.616Z" fill="white"/>
<path d="M313.201 239.328L357.553 252L398.017 241.776L441.073 252.864L486.433 239.616L492.049 351.36L463.969 360.72L430.273 347.76L398.593 360L360.721 349.92L313.201 239.328ZM313.057 237.312C312.481 237.312 311.905 237.6 311.473 238.032C310.897 238.608 310.753 239.472 311.185 240.192L358.993 350.784C359.281 351.36 359.713 351.792 360.289 351.936L398.161 362.016C398.593 362.16 399.025 362.016 399.457 361.872L430.417 349.92L463.393 362.592C463.681 362.736 463.825 362.736 464.113 362.736C464.401 362.736 464.545 362.736 464.833 362.592L492.913 353.232C493.777 352.944 494.353 352.08 494.353 351.216L488.737 239.472C488.737 238.896 488.449 238.32 487.873 237.888C487.585 237.6 487.153 237.456 486.721 237.6C486.577 237.6 486.289 237.6 486.145 237.744L441.217 250.848L398.593 239.904C398.305 239.76 397.873 239.76 397.585 239.904L357.697 249.984L313.777 237.456C313.633 237.456 313.345 237.456 313.201 237.456L313.057 237.312Z" fill="#171717"/>
<path d="M463.824 360.432C463.392 360.432 462.959 360.144 462.815 359.568L440.351 254.016C440.207 253.44 440.639 253.008 441.071 252.864C441.647 252.72 442.08 253.152 442.224 253.584L464.688 359.136C464.832 359.712 464.4 360.144 463.968 360.288L463.824 360.432Z" fill="#D1D3D4"/>
<path d="M429.984 347.472C429.552 347.472 429.12 347.184 428.976 346.752L397.296 243.504C397.152 242.928 397.44 242.352 398.016 242.208C398.592 242.064 399.168 242.352 399.312 242.928L430.992 346.176C431.136 346.752 430.848 347.328 430.272 347.472H429.984Z" fill="#D1D3D4"/>
<path d="M398.304 359.856C397.872 359.856 397.584 359.568 397.44 359.28L357.12 253.728C356.976 253.152 357.12 252.576 357.696 252.432C358.272 252.288 358.848 252.432 358.992 253.008L399.312 358.56C399.456 359.136 399.312 359.712 398.736 359.856C398.592 359.856 398.448 359.856 398.304 359.856Z" fill="#D1D3D4"/>
<path d="M326.736 282.672C327.024 284.832 327.6 286.992 328.464 289.008L332.352 299.088C333.36 301.536 334.8 304.56 337.536 304.56C339.408 304.56 340.848 303.12 342.144 301.824C346.032 297.648 350.208 293.328 351.216 287.712C351.36 286.848 351.216 285.84 350.496 285.696C350.064 285.696 349.776 285.696 349.488 285.984C346.608 287.28 344.16 289.296 342 291.744C344.736 288.72 347.184 285.408 349.2 281.808C349.632 280.944 350.064 279.792 349.2 279.36C348.624 279.072 348.048 279.072 347.472 279.36C345.312 280.08 343.44 281.376 341.856 282.816C344.16 281.232 345.888 279.072 347.04 276.624C347.472 275.76 347.616 274.32 346.752 273.888C345.888 273.456 345.168 274.032 344.592 274.464C343.008 275.616 341.568 277.056 340.272 278.496C341.28 277.2 342 275.616 342.288 274.032C342.432 273.744 342.432 273.312 342.144 272.88C341.712 272.16 340.56 272.592 339.984 273.168L330.768 280.368C331.2 280.08 328.896 277.344 328.032 277.632C326.592 277.92 326.736 281.808 326.736 282.672Z" fill="white"/>
<path d="M337.681 305.568C333.937 305.568 332.065 300.96 331.633 299.52L327.745 289.44C326.881 287.424 326.161 285.12 325.873 282.96C325.873 282.384 325.441 277.344 327.745 276.768C329.041 276.48 330.481 277.92 331.201 278.784L339.409 272.304C340.129 271.728 340.993 271.44 341.857 271.44C342.289 271.584 342.721 271.872 343.009 272.16C343.297 272.736 343.441 273.312 343.297 274.032V274.176L344.017 273.6C344.881 272.736 346.177 272.448 347.329 272.88C348.769 273.6 348.769 275.472 348.049 276.912C347.905 277.344 347.617 277.92 347.329 278.352C348.193 277.92 349.201 278.064 349.921 278.496C350.929 279.216 351.073 280.656 350.209 282.24C349.633 283.248 349.057 284.256 348.337 285.264L349.057 284.832C349.633 284.544 350.209 284.4 350.785 284.544C352.081 284.832 352.657 286.128 352.369 287.856C351.217 293.904 346.753 298.656 343.009 302.544C341.569 303.984 339.841 305.568 337.681 305.568ZM327.745 282.528C328.033 284.544 328.609 286.56 329.473 288.576L333.361 298.656C334.657 301.824 335.953 303.408 337.681 303.552C339.265 303.264 340.561 302.4 341.569 301.104C345.025 297.504 349.345 292.896 350.353 287.424C350.497 287.136 350.497 286.848 350.353 286.56C350.353 286.56 350.209 286.56 350.065 286.704C347.905 287.712 345.745 289.152 344.017 290.88C343.585 291.312 343.153 291.744 342.721 292.176C342.289 292.608 341.713 292.608 341.281 292.176C340.849 291.888 340.849 291.168 341.137 290.736C341.569 290.304 342.001 289.728 342.433 289.296C344.593 286.704 346.609 283.968 348.193 280.944C348.481 280.656 348.625 280.224 348.481 279.792C348.481 279.792 348.337 279.648 347.617 279.936C346.321 280.368 345.169 281.088 344.017 281.808C343.441 282.384 342.865 282.816 342.145 283.248C341.713 283.536 341.137 283.536 340.849 283.104C340.417 282.672 340.561 282.096 340.849 281.664C341.425 281.088 342.001 280.656 342.577 280.224C343.873 278.928 344.881 277.488 345.601 275.76C345.889 275.04 345.889 274.32 345.745 274.32C345.601 274.32 345.313 274.32 344.593 274.896C343.009 276.048 341.713 277.344 340.417 278.784C340.129 279.216 339.409 279.216 338.977 278.928C338.545 278.64 338.401 277.92 338.833 277.488C339.697 276.336 340.417 274.896 340.705 273.312V273.168C340.417 273.312 340.273 273.456 339.985 273.6L330.769 280.8C330.337 281.088 329.617 281.088 329.329 280.656C329.185 280.512 329.041 280.224 329.185 279.936C328.753 279.36 328.321 278.784 327.601 278.352C327.313 279.648 327.169 281.088 327.313 282.384L327.745 282.528Z" fill="#171717"/>
<path d="M565.199 237.6C565.199 237.6 621.791 319.824 590.975 327.888C569.519 333.504 525.311 327.312 508.463 320.4C491.615 313.488 484.271 308.016 484.271 308.016C484.271 308.016 466.127 308.304 467.855 303.84C468.863 301.248 471.599 299.664 474.335 299.952C474.335 299.952 465.695 299.952 466.415 295.776C467.135 291.6 474.335 292.32 474.335 292.32C474.335 292.32 461.807 289.152 464.831 286.416C467.855 283.68 474.191 285.12 474.191 285.12C474.191 285.12 465.695 284.4 465.695 280.656C465.695 274.464 492.479 278.784 497.951 283.248C503.423 287.712 542.879 291.888 548.639 291.888L532.799 254.736" fill="white"/>
<path d="M569.377 331.056C547.345 331.056 520.705 326.448 508.177 321.264C492.913 315.072 485.569 310.032 483.985 308.88C480.817 308.88 469.441 308.736 467.281 305.568C466.849 304.848 466.705 303.984 466.993 303.264C467.425 301.968 468.289 300.96 469.441 300.096C468.145 299.808 467.137 299.088 466.273 298.224C465.553 297.504 465.409 296.496 465.553 295.488C465.985 293.616 467.425 292.176 469.297 291.744C466.561 290.736 463.825 289.296 463.537 287.712C463.393 286.992 463.681 286.128 464.257 285.552C465.121 284.832 466.129 284.256 467.281 283.968C465.841 283.392 464.977 281.952 464.833 280.512C464.833 279.216 465.697 277.92 466.993 277.488C473.041 274.464 493.633 278.064 498.817 282.24C503.569 285.984 537.553 290.016 547.345 290.592L531.793 254.88C531.649 254.304 531.793 253.728 532.369 253.584C532.945 253.296 533.521 253.584 533.665 254.16L549.505 291.312C549.649 291.6 549.649 292.032 549.361 292.32C549.217 292.608 548.785 292.752 548.497 292.752C544.033 292.752 503.281 288.72 497.233 283.968C492.625 280.368 472.897 276.768 467.569 279.504C466.561 279.936 466.561 280.512 466.561 280.656C466.561 282.24 469.873 283.392 472.465 283.824C473.041 283.824 473.761 283.968 474.337 284.112C474.913 284.256 475.201 284.832 475.057 285.264C474.913 285.696 474.481 286.128 474.049 285.984C473.473 285.984 472.753 285.84 472.177 285.696C470.017 285.552 467.137 285.696 465.409 287.136L465.265 287.28C465.409 288.144 469.873 290.16 474.481 291.312C475.057 291.456 475.345 292.032 475.201 292.608C475.057 293.04 474.625 293.328 474.193 293.328C474.193 293.328 468.001 292.752 467.425 295.92C467.281 296.352 467.425 296.784 467.713 297.072C468.577 298.224 471.313 298.8 473.473 298.944C473.905 298.944 474.193 298.944 474.625 298.944C475.201 299.088 475.489 299.52 475.489 300.096C475.345 300.528 475.057 300.96 474.481 300.96C474.193 300.96 473.905 300.96 473.617 300.96C471.601 300.96 469.729 302.256 469.009 304.128C468.865 304.272 468.865 304.416 469.009 304.56C470.305 306.288 478.801 307.008 484.417 307.008C484.705 307.008 484.849 307.008 484.993 307.152C484.993 307.152 492.337 312.624 508.897 319.536C525.457 326.448 569.809 332.496 590.833 327.024C594.289 326.304 597.025 323.856 598.177 320.544C606.097 299.232 564.769 238.896 564.337 238.32C564.049 237.888 564.049 237.312 564.481 236.88C564.913 236.592 565.633 236.592 565.921 237.168C567.649 239.616 608.257 299.088 599.905 321.264C598.465 325.152 595.153 328.176 591.121 329.04C584.209 330.48 576.721 331.2 569.377 331.056Z" fill="#171717"/>
<path d="M473.904 590.256C473.904 590.256 464.112 597.888 456.192 591.696C456.192 591.696 430.272 589.392 427.248 607.104H473.184L473.904 590.256Z" fill="#171717"/>
<path d="M473.184 608.112H427.248C426.96 608.112 426.672 607.968 426.528 607.824C426.384 607.536 426.24 607.248 426.384 606.96C429.408 588.528 456.048 590.688 456.336 590.688C456.48 590.688 456.768 590.832 456.912 590.832C464.112 596.592 473.04 589.68 473.472 589.392C473.76 589.104 474.192 589.104 474.624 589.248C474.912 589.392 475.2 589.824 475.2 590.112L474.48 606.96C474.192 607.68 473.76 608.112 473.184 608.112ZM428.544 606.096H472.176L472.752 592.272C469.44 594.144 462.096 597.6 455.76 592.704C453.024 592.416 432 591.696 428.544 606.096Z" fill="#171717"/>
<path d="M174.095 239.184H165.455V553.104H174.095V239.184Z" fill="white"/>
<path d="M174.24 554.256H165.6C165.024 554.256 164.592 553.824 164.592 553.248V239.328C164.592 238.752 165.024 238.32 165.6 238.32H174.24C174.816 238.32 175.248 238.752 175.248 239.328V553.248C175.248 553.824 174.816 554.256 174.24 554.256ZM166.608 552.24H173.232V240.192H166.608V552.24Z" fill="#D1D3D4"/>
<path d="M208.655 348.48H121.535V309.6H208.655L222.623 329.04L208.655 348.48Z" fill="white"/>
<path d="M208.656 349.488H121.536C120.96 349.488 120.528 349.056 120.528 348.48V309.6C120.528 309.024 120.96 308.592 121.536 308.592H208.656C208.944 308.592 209.232 308.736 209.52 309.024L223.488 328.464C223.776 328.752 223.776 329.328 223.488 329.616L209.52 349.056C209.232 349.344 208.944 349.488 208.656 349.488ZM122.544 347.472H208.08L221.328 329.04L208.08 310.608H122.544V347.472Z" fill="#D1D3D4"/>
<path d="M122.4 294.768H209.52V255.888H122.4L108.432 275.328L122.4 294.768Z" fill="white"/>
<path d="M209.52 295.776H122.4C122.112 295.776 121.824 295.632 121.536 295.344L107.568 275.904C107.28 275.616 107.28 275.04 107.568 274.752L121.536 255.312C121.68 255.024 121.968 254.88 122.4 254.88H209.52C210.096 254.88 210.528 255.312 210.528 255.888V294.768C210.528 295.344 210.096 295.776 209.52 295.776ZM122.976 293.76H208.512V256.896H122.976L109.728 275.328L122.976 293.76Z" fill="#D1D3D4"/>
</svg>
