<svg width="696" height="720" viewBox="0 0 696 720" fill="none" xmlns="http://www.w3.org/2000/svg">
<path d="M595.488 554.256H76.5119C75.9359 554.256 75.5039 553.824 75.5039 553.248C75.5039 552.672 75.9359 552.24 76.5119 552.24H595.632C596.208 552.24 596.64 552.672 596.64 553.248C596.64 553.824 596.064 554.256 595.488 554.256Z" fill="#D1D3D4"/>
<path d="M316.417 476.352C315.265 476.352 314.401 475.488 314.401 474.336V463.68C314.401 461.52 312.673 459.792 310.513 459.792H267.889C265.729 459.792 264.001 461.52 264.001 463.68V474.48C264.001 475.632 263.137 476.496 261.985 476.496C260.833 476.496 259.969 475.632 259.969 474.48V463.68C259.969 459.36 263.569 455.76 267.889 455.76H310.513C314.833 455.76 318.433 459.36 318.433 463.68V474.48C318.433 475.488 317.569 476.352 316.417 476.352Z" fill="#D1D3D4"/>
<path d="M212.448 474.336H366.096C371.568 474.336 375.888 478.656 375.888 484.128V586.656C375.888 592.128 371.568 596.448 366.096 596.448H212.448C206.976 596.448 202.656 592.128 202.656 586.656V484.128C202.656 478.8 206.976 474.336 212.448 474.336Z" fill="#FAFAFA"/>
<path d="M366.096 597.6H212.448C206.544 597.6 201.648 592.704 201.648 586.8V484.128C201.648 478.224 206.544 473.328 212.448 473.328H366.096C372 473.328 376.896 478.224 376.896 484.128V586.656C376.896 592.704 372.144 597.6 366.096 597.6ZM212.448 475.344C207.552 475.344 203.664 479.232 203.664 484.128V586.656C203.664 591.552 207.552 595.44 212.448 595.44H366.096C370.992 595.44 374.88 591.552 374.88 586.656V484.128C374.88 479.232 370.992 475.344 366.096 475.344H212.448Z" fill="#D1D3D4"/>
<path d="M244.56 471.456H248.016C250.176 471.456 251.904 473.184 251.904 475.344V595.44C251.904 597.6 250.176 599.328 248.016 599.328H244.56C242.4 599.328 240.672 597.6 240.672 595.44V475.344C240.672 473.184 242.4 471.456 244.56 471.456Z" fill="#FAFAFA"/>
<path d="M248.017 600.48H244.561C241.825 600.48 239.665 598.32 239.665 595.584V475.488C239.665 472.752 241.825 470.592 244.561 470.592H248.017C250.753 470.592 252.913 472.752 252.913 475.488V595.584C252.913 598.32 250.753 600.48 248.017 600.48ZM244.561 472.464C242.977 472.464 241.681 473.76 241.681 475.344V595.44C241.681 597.024 242.977 598.32 244.561 598.32H248.017C249.601 598.32 250.897 597.024 250.897 595.44V475.344C250.897 473.76 249.601 472.464 248.017 472.464H244.561Z" fill="#D1D3D4"/>
<path d="M332.688 471.456H336.144C338.304 471.456 340.032 473.184 340.032 475.344V595.44C340.032 597.6 338.304 599.328 336.144 599.328H332.688C330.528 599.328 328.8 597.6 328.8 595.44V475.344C328.8 473.184 330.528 471.456 332.688 471.456Z" fill="#FAFAFA"/>
<path d="M336.144 600.48H332.688C329.952 600.48 327.792 598.32 327.792 595.584V475.488C327.792 472.752 329.952 470.592 332.688 470.592H336.144C338.88 470.592 341.04 472.752 341.04 475.488V595.584C341.04 598.32 338.88 600.48 336.144 600.48ZM332.688 472.464C331.104 472.464 329.808 473.76 329.808 475.344V595.44C329.808 597.024 331.104 598.32 332.688 598.32H336.144C337.728 598.32 339.024 597.024 339.024 595.44V475.344C339.024 473.76 337.728 472.464 336.144 472.464H332.688Z" fill="#D1D3D4"/>
<path d="M281.569 548.064C288.011 548.064 293.233 542.842 293.233 536.4C293.233 529.958 288.011 524.736 281.569 524.736C275.127 524.736 269.905 529.958 269.905 536.4C269.905 542.842 275.127 548.064 281.569 548.064Z" fill="#FAFAFA"/>
<path d="M281.568 549.216C274.512 549.216 268.896 543.456 268.896 536.544C268.896 529.488 274.656 523.872 281.568 523.872C288.624 523.872 294.24 529.632 294.24 536.544C294.24 543.456 288.624 549.216 281.568 549.216ZM281.568 525.744C275.664 525.744 270.912 530.496 270.912 536.4C270.912 542.304 275.664 547.056 281.568 547.056C287.472 547.056 292.225 542.304 292.225 536.4C292.225 530.496 287.472 525.744 281.568 525.744Z" fill="#D1D3D4"/>
<path d="M313.751 551.708L278.76 565.021L285.929 583.863L320.92 570.549L313.751 551.708Z" fill="#FAFAFA"/>
<path d="M285.889 584.928C285.457 584.928 285.169 584.64 285.025 584.208L277.825 565.344C277.681 565.056 277.681 564.768 277.825 564.624C277.969 564.336 278.113 564.192 278.401 564.048L313.393 550.8C313.969 550.656 314.545 550.8 314.689 551.376L321.889 570.24C322.033 570.528 322.033 570.816 321.889 570.96C321.745 571.248 321.601 571.392 321.313 571.536L286.321 584.784C286.177 584.928 286.033 584.928 285.889 584.928ZM280.129 565.632L286.609 582.624L319.729 569.952L313.249 552.96L280.129 565.632Z" fill="#D1D3D4"/>
<path d="M320.592 513.072L292.512 518.976L286.608 490.896L320.592 513.072Z" fill="#FAFAFA"/>
<path d="M292.513 519.984C292.081 519.984 291.649 519.696 291.505 519.12L285.601 491.04C285.457 490.608 285.745 490.176 286.033 490.032C286.321 489.744 286.753 489.744 287.185 490.032L321.025 512.208C321.313 512.496 321.601 512.784 321.457 513.216C321.457 513.648 321.025 513.936 320.737 513.936L292.801 519.84L292.513 519.984ZM288.193 493.056L293.377 517.68L318.001 512.64L288.193 493.056Z" fill="#D1D3D4"/>
<path d="M538.032 591.84L529.248 599.472L522.336 594.288L519.168 568.8L537.744 564.768L538.032 591.84Z" fill="#FAFAFA"/>
<path d="M537.744 564.768L538.032 591.84L529.248 599.328L522.192 594.144L519.024 568.656L537.744 564.768ZM537.744 562.752C537.6 562.752 537.456 562.752 537.312 562.752L518.736 566.784C517.728 567.072 517.008 567.936 517.152 568.944L520.32 594.432C520.32 595.008 520.608 595.584 521.184 595.872L528.24 601.056C528.528 601.344 528.96 601.488 529.392 601.488C529.824 601.488 530.4 601.344 530.688 601.056L539.472 593.568C539.904 593.136 540.192 592.56 540.192 591.984L539.904 564.912C539.76 563.76 538.896 562.896 537.744 562.752Z" fill="#231F20"/>
<path d="M539.473 590.256C539.473 590.256 528.529 597.888 520.753 591.696C520.753 591.696 494.833 589.392 491.809 607.104H539.761L539.473 590.256Z" fill="#231F20"/>
<path d="M539.76 608.112H491.808C491.52 608.112 491.232 607.968 491.088 607.824C490.944 607.536 490.8 607.248 490.944 606.96C493.968 588.528 520.608 590.688 520.896 590.688C521.04 590.688 521.328 590.832 521.472 590.832C528.672 596.592 538.896 589.536 539.04 589.392C539.472 589.104 540.192 589.248 540.48 589.68C540.624 589.824 540.624 589.968 540.624 590.256L540.912 607.104C540.912 607.392 540.768 607.68 540.624 607.824C540.336 607.968 540.048 608.112 539.76 608.112ZM493.104 606.096H538.896L538.608 592.128C535.152 594 526.944 597.744 520.464 592.704C517.584 592.416 496.56 591.696 493.104 606.096Z" fill="#231F20"/>
<path d="M448.464 591.84L440.832 599.472L433.776 594.288L430.608 568.8L451.2 564.768L448.464 591.84Z" fill="#FAFAFA"/>
<path d="M451.2 564.768L448.32 591.84L440.688 599.328L433.632 594.144L430.608 568.656L451.2 564.768ZM451.2 562.752C451.056 562.752 450.912 562.752 450.768 562.752L430.032 566.784C429.024 566.928 428.304 567.936 428.448 568.944L431.616 594.288C431.616 594.864 431.904 595.44 432.48 595.728L439.536 600.912C439.824 601.2 440.256 601.344 440.688 601.344C441.264 601.344 441.696 601.2 442.128 600.768L449.76 593.28C450.048 592.992 450.336 592.56 450.336 591.984L453.216 564.912C453.36 563.76 452.496 562.752 451.344 562.752C451.488 562.752 451.344 562.752 451.2 562.752Z" fill="#231F20"/>
<path d="M531.84 351.072L542.208 578.304L514.848 578.016L477.264 425.664L456.24 577.44L425.856 577.152L416.352 353.664L531.84 351.072Z" fill="#231F20"/>
<path d="M542.208 579.168L514.704 578.88C514.272 578.88 513.84 578.592 513.696 578.16L477.408 430.992L457.104 577.584C457.104 578.016 456.672 578.448 456.096 578.448L425.712 578.16C425.136 578.16 424.704 577.728 424.704 577.152L415.2 353.808C415.2 353.52 415.344 353.232 415.488 353.088C415.632 352.944 415.92 352.8 416.208 352.8L531.696 350.208C532.272 350.208 532.704 350.64 532.704 351.216L543.072 578.304C543.072 578.592 542.928 578.88 542.784 579.024C542.784 579.168 542.496 579.312 542.208 579.168ZM515.568 577.008L541.2 577.296L530.832 352.224L417.216 354.816L426.72 576.288L455.376 576.576L476.256 425.664C476.256 425.232 476.688 424.8 477.12 424.8C477.552 424.8 477.984 425.088 478.128 425.52L515.568 577.008Z" fill="#231F20"/>
<path d="M466.177 171.504C482.322 171.504 495.409 158.416 495.409 142.272C495.409 126.128 482.322 113.04 466.177 113.04C450.033 113.04 436.945 126.128 436.945 142.272C436.945 158.416 450.033 171.504 466.177 171.504Z" fill="#FAFAFA"/>
<path d="M466.177 172.512H465.889C449.041 172.368 435.505 158.688 435.505 141.84C435.505 124.992 449.329 111.456 466.177 111.456C483.025 111.6 496.561 125.28 496.561 142.128C496.417 158.976 482.881 172.512 466.177 172.512ZM466.177 114.048C450.625 113.904 437.953 126.576 437.809 142.128C437.665 157.68 450.337 170.352 465.889 170.496H466.177C481.729 170.64 494.401 157.968 494.545 142.416C494.689 126.864 482.017 114.192 466.465 114.048H466.177Z" fill="#231F20"/>
<path d="M504.431 153.044C506.638 143.025 491.049 131.076 469.613 126.354C448.177 121.633 429.01 125.927 426.803 135.946C424.597 145.966 440.185 157.915 461.622 162.637C483.058 167.358 502.225 163.064 504.431 153.044Z" fill="#231F20"/>
<path d="M478.704 165.6C472.944 165.6 467.04 164.88 461.424 163.584C439.104 158.688 423.408 146.448 425.856 135.648C428.304 124.848 447.6 120.384 469.92 125.28C492.24 130.176 507.792 142.416 505.488 153.216C503.76 160.992 493.104 165.6 478.704 165.6ZM452.64 125.424C439.392 125.424 429.312 129.456 427.872 136.224C425.712 145.728 441.12 157.104 461.856 161.712C482.592 166.32 501.456 162.288 503.472 152.928C505.632 143.424 490.224 132.048 469.344 127.44C464.016 126 458.256 125.424 452.64 125.424Z" fill="#231F20"/>
<path d="M436.224 142.992C436.512 142.272 436.8 141.552 437.088 140.832C440.688 132.624 454.656 132.048 462.288 132.624C469.344 133.056 476.4 134.64 482.304 138.672C487.056 141.84 492.096 147.456 492.528 153.36C492.96 159.264 490.8 166.896 488.928 172.368C487.92 175.68 486.192 178.848 483.744 181.296C481.008 183.456 477.984 184.896 474.528 185.616C467.472 187.488 459.84 188.352 452.784 186.192C445.584 183.888 438.384 177.696 436.224 170.208C433.776 161.424 433.2 151.776 436.224 142.992Z" fill="#FAFAFA"/>
<path d="M461.713 188.496C458.545 188.496 455.521 188.064 452.497 187.2C444.433 184.608 437.233 177.696 435.217 170.496C433.201 163.44 431.617 152.928 435.217 142.704C435.505 141.984 435.793 141.12 436.081 140.4C440.257 130.752 457.105 131.184 462.289 131.616C470.785 132.192 477.553 134.208 482.881 137.808C487.489 140.832 492.961 146.736 493.537 153.36C493.969 158.112 492.673 164.592 489.937 172.8C488.929 176.256 487.057 179.568 484.465 182.16C481.729 184.464 478.417 186.048 474.817 186.768C470.497 187.776 466.177 188.496 461.713 188.496ZM437.233 143.424C433.777 153.072 435.361 163.152 437.233 169.92C439.105 176.688 445.585 182.88 453.073 185.184C458.977 187.056 465.889 186.768 474.241 184.608C477.409 183.888 480.433 182.592 483.025 180.432C485.329 177.984 487.057 175.104 487.921 171.936C490.657 164.016 491.809 157.824 491.521 153.36C491.089 147.888 486.337 142.416 481.729 139.392C476.689 136.08 470.353 134.208 462.145 133.632C457.393 133.344 441.697 132.912 438.097 141.264C437.665 141.984 437.377 142.704 437.233 143.424Z" fill="#231F20"/>
<path d="M526.224 264.096L544.08 243.36C531.84 222.336 519.024 210.24 510.528 205.776C499.584 198.144 474.096 199.872 450.768 201.024C443.28 201.312 435.936 202.608 428.88 205.2C402.384 215.136 380.64 256.608 380.64 256.608L406.272 268.992C406.272 268.992 405.696 350.496 410.88 368.208C410.88 368.208 484.032 379.872 535.584 360.288C535.584 360.288 526.224 271.152 526.224 264.096Z" fill="#3563E9"/>
<path d="M450.049 190.368L451.633 208.224C451.633 208.224 458.689 218.16 469.633 213.696C476.113 210.816 481.009 205.344 483.025 198.432L477.697 166.464C477.697 166.464 468.481 163.296 468.049 144.576C459.409 150.048 449.473 153.216 439.249 153.504C439.249 153.504 437.377 174.096 440.113 182.736C442.849 191.232 450.049 190.368 450.049 190.368Z" fill="#FAFAFA"/>
<path d="M464.016 215.856C455.952 215.856 450.912 208.944 450.768 208.8C450.624 208.656 450.624 208.512 450.624 208.224L449.184 191.376C446.88 191.232 441.408 190.224 439.104 183.024C436.224 174.384 438.096 154.224 438.24 153.36C438.24 152.784 438.672 152.496 439.248 152.352C449.328 152.064 458.976 149.04 467.472 143.568C467.76 143.28 468.192 143.28 468.48 143.424C468.768 143.568 469.056 144 469.056 144.288C469.488 161.856 477.984 165.168 477.984 165.168C478.416 165.312 478.56 165.6 478.704 166.032L484.032 198C484.032 198.144 484.032 198.288 484.032 198.432C482.016 205.632 476.976 211.536 470.064 214.416C468.192 215.424 466.176 215.856 464.016 215.856ZM452.64 207.792C453.792 209.232 459.984 216.576 469.2 212.688C475.392 210.096 480 204.768 481.872 198.432L476.688 167.184C474.672 166.176 467.904 161.712 467.04 146.448C458.832 151.2 449.616 154.08 440.112 154.512C439.824 158.544 438.672 175.104 440.976 182.448C443.424 190.08 449.616 189.504 449.904 189.36C450.192 189.36 450.48 189.36 450.624 189.648C450.768 189.792 450.912 190.08 451.056 190.368L452.64 207.792Z" fill="#231F20"/>
<path d="M470.929 166.896C471.073 165.312 471.793 163.728 472.801 162.576C473.809 161.568 475.105 160.56 476.401 159.984C477.121 159.552 477.841 159.264 478.705 159.12C479.281 159.12 479.857 159.264 480.433 159.408C481.729 159.84 482.881 160.704 483.601 161.856C484.033 162.864 484.321 164.016 484.321 165.024C484.321 166.176 484.321 167.472 484.033 168.624C482.881 173.52 477.841 176.544 473.089 175.248H472.945" fill="#FAFAFA"/>
<path d="M475.248 176.544C474.384 176.544 473.52 176.4 472.656 176.256C472.08 176.112 471.792 175.536 471.936 174.96C472.08 174.384 472.656 174.096 473.232 174.24C477.552 175.392 482.016 172.8 483.024 168.48V168.336C483.312 167.184 483.312 166.176 483.312 165.024C483.312 164.016 483.168 163.152 482.736 162.288C482.16 161.28 481.152 160.704 480.144 160.272C479.712 160.128 479.28 159.984 478.848 159.984C478.128 160.128 477.552 160.272 476.976 160.704C475.68 161.28 474.528 162.144 473.664 163.152C472.8 164.16 472.224 165.456 472.08 166.896C472.08 167.472 471.504 167.904 470.928 167.904C470.352 167.904 469.92 167.328 469.92 166.752C470.064 164.88 470.784 163.152 472.08 161.712C473.232 160.56 474.528 159.552 475.968 158.832C476.832 158.256 477.696 157.968 478.704 157.824C479.424 157.824 480.144 157.968 480.864 158.256C482.448 158.688 483.744 159.696 484.608 161.136C485.184 162.288 485.472 163.584 485.472 164.88C485.472 166.176 485.472 167.472 485.184 168.768C484.032 173.376 479.856 176.544 475.248 176.544Z" fill="#231F20"/>
<path d="M451.345 199.152C455.665 199.008 459.697 196.848 462.289 193.536C466.465 187.92 465.601 185.184 465.601 185.184C465.601 185.184 458.257 190.944 450.625 190.656L451.345 199.152Z" fill="#231F20"/>
<path d="M451.344 200.16C450.768 200.16 450.336 199.728 450.336 199.296L449.616 190.656C449.616 190.368 449.616 190.08 449.904 189.936C450.048 189.648 450.336 189.648 450.624 189.648C457.824 189.936 464.88 184.464 465.024 184.464C465.456 184.176 466.032 184.176 466.464 184.608C466.608 184.752 466.608 184.752 466.608 184.896C466.752 185.184 467.472 188.352 463.152 194.112C460.272 197.712 455.952 199.872 451.344 200.16ZM451.632 191.52L452.208 198C455.808 197.568 459.264 195.696 461.568 192.816C463.008 191.088 464.016 189.216 464.592 187.056C460.704 189.648 456.24 191.088 451.632 191.52Z" fill="#231F20"/>
<path d="M452.495 162.144C452.495 162.144 447.599 171.792 449.327 173.232C451.055 174.672 454.799 173.088 454.799 173.088" fill="#FAFAFA"/>
<path d="M451.344 174.816C450.336 174.816 449.472 174.528 448.752 173.952C446.88 172.368 449.328 166.464 451.776 161.712C452.064 161.28 452.64 160.992 453.072 161.28C453.504 161.568 453.792 162.144 453.504 162.576C451.344 167.04 449.76 171.648 450.048 172.512C450.768 173.088 453.072 172.656 454.368 172.08C454.944 171.936 455.52 172.08 455.664 172.656C455.808 173.232 455.664 173.808 455.088 173.952C453.936 174.528 452.64 174.816 451.344 174.816Z" fill="#231F20"/>
<path d="M454.368 179.712C454.368 179.712 461.28 181.008 462.288 174.384Z" fill="#FAFAFA"/>
<path d="M455.665 180.864C455.089 180.864 454.657 180.864 454.081 180.72C453.505 180.576 453.217 180.144 453.217 179.568C453.361 178.992 453.793 178.704 454.369 178.704C455.953 178.992 457.681 178.704 459.121 177.84C460.273 176.976 460.993 175.68 461.137 174.24C461.281 173.664 461.713 173.376 462.289 173.376C462.865 173.52 463.153 173.952 463.153 174.528C463.009 176.544 461.857 178.272 460.273 179.424C458.977 180.432 457.393 180.864 455.665 180.864Z" fill="#231F20"/>
<path d="M464.101 160.862C464.205 159.674 463.648 158.654 462.856 158.584C462.064 158.514 461.337 159.421 461.232 160.609C461.127 161.797 461.684 162.817 462.476 162.887C463.269 162.957 463.996 162.05 464.101 160.862Z" fill="#231F20"/>
<path d="M448.477 162.957C448.582 161.769 448.025 160.749 447.233 160.679C446.441 160.609 445.714 161.516 445.609 162.704C445.504 163.893 446.061 164.913 446.853 164.982C447.646 165.052 448.373 164.146 448.477 162.957Z" fill="#231F20"/>
<path d="M462.576 239.616L417.072 252.864L374.016 241.776L333.552 252L289.2 239.328L336.864 350.064L374.736 360L406.416 347.76L440.112 360.72L468.192 351.36L462.576 239.616Z" fill="#FAFAFA"/>
<path d="M289.201 239.328L333.553 252L374.017 241.776L417.073 252.864L462.433 239.616L468.049 351.36L439.969 360.72L406.273 347.76L374.593 360L336.721 349.92L289.201 239.328ZM289.057 237.312C288.481 237.312 287.905 237.6 287.473 238.032C286.897 238.608 286.753 239.472 287.185 240.192L334.993 350.784C335.281 351.36 335.713 351.792 336.289 351.936L374.161 362.016C374.593 362.16 375.025 362.016 375.457 361.872L406.417 349.92L439.393 362.592C439.681 362.736 439.825 362.736 440.113 362.736C440.401 362.736 440.545 362.736 440.833 362.592L468.913 353.232C469.777 352.944 470.353 352.08 470.353 351.216L464.737 239.472C464.737 238.896 464.449 238.32 463.873 237.888C463.585 237.6 463.153 237.456 462.721 237.6C462.577 237.6 462.289 237.6 462.145 237.744L417.217 250.848L374.593 239.904C374.305 239.76 373.873 239.76 373.585 239.904L333.697 249.984L289.777 237.456C289.633 237.456 289.345 237.456 289.201 237.456L289.057 237.312Z" fill="#231F20"/>
<path d="M439.824 360.432C439.392 360.432 438.959 360.144 438.815 359.568L416.351 254.016C416.207 253.44 416.639 253.008 417.071 252.864C417.647 252.72 418.08 253.152 418.224 253.584L440.688 359.136C440.832 359.712 440.4 360.144 439.968 360.288L439.824 360.432Z" fill="#D1D3D4"/>
<path d="M405.984 347.472C405.552 347.472 405.12 347.184 404.976 346.752L373.296 243.504C373.152 242.928 373.44 242.352 374.016 242.208C374.592 242.064 375.168 242.352 375.312 242.928L406.992 346.176C407.136 346.752 406.848 347.328 406.272 347.472H405.984Z" fill="#D1D3D4"/>
<path d="M374.304 359.856C373.872 359.856 373.584 359.568 373.44 359.28L333.12 253.728C332.976 253.152 333.12 252.576 333.696 252.432C334.272 252.288 334.848 252.432 334.992 253.008L375.312 358.56C375.456 359.136 375.312 359.712 374.736 359.856C374.592 359.856 374.448 359.856 374.304 359.856Z" fill="#D1D3D4"/>
<path d="M302.736 282.672C303.024 284.832 303.6 286.992 304.464 289.008L308.352 299.088C309.36 301.536 310.8 304.56 313.536 304.56C315.408 304.56 316.848 303.12 318.144 301.824C322.032 297.648 326.208 293.328 327.216 287.712C327.36 286.848 327.216 285.84 326.496 285.696C326.064 285.696 325.776 285.696 325.488 285.984C322.608 287.28 320.16 289.296 318 291.744C320.736 288.72 323.184 285.408 325.2 281.808C325.632 280.944 326.064 279.792 325.2 279.36C324.624 279.072 324.048 279.072 323.472 279.36C321.312 280.08 319.44 281.376 317.856 282.816C320.16 281.232 321.888 279.072 323.04 276.624C323.472 275.76 323.616 274.32 322.752 273.888C321.888 273.456 321.168 274.032 320.592 274.464C319.008 275.616 317.568 277.056 316.272 278.496C317.28 277.2 318 275.616 318.288 274.032C318.432 273.744 318.432 273.312 318.144 272.88C317.712 272.16 316.56 272.592 315.984 273.168L306.768 280.368C307.2 280.08 304.896 277.344 304.032 277.632C302.592 277.92 302.736 281.808 302.736 282.672Z" fill="#FAFAFA"/>
<path d="M313.681 305.568C309.937 305.568 308.065 300.96 307.633 299.52L303.745 289.44C302.881 287.424 302.161 285.12 301.873 282.96C301.873 282.384 301.441 277.344 303.745 276.768C305.041 276.48 306.481 277.92 307.201 278.784L315.409 272.304C316.129 271.728 316.993 271.44 317.857 271.44C318.289 271.584 318.721 271.872 319.009 272.16C319.297 272.736 319.441 273.312 319.297 274.032V274.176L320.017 273.6C320.881 272.736 322.177 272.448 323.329 272.88C324.769 273.6 324.769 275.472 324.049 276.912C323.905 277.344 323.617 277.92 323.329 278.352C324.193 277.92 325.201 278.064 325.921 278.496C326.929 279.216 327.073 280.656 326.209 282.24C325.633 283.248 325.057 284.256 324.337 285.264L325.057 284.832C325.633 284.544 326.209 284.4 326.785 284.544C328.081 284.832 328.657 286.128 328.369 287.856C327.217 293.904 322.753 298.656 319.009 302.544C317.569 303.984 315.841 305.568 313.681 305.568ZM303.745 282.528C304.033 284.544 304.609 286.56 305.473 288.576L309.361 298.656C310.657 301.824 311.953 303.408 313.681 303.552C315.265 303.264 316.561 302.4 317.569 301.104C321.025 297.504 325.345 292.896 326.353 287.424C326.497 287.136 326.497 286.848 326.353 286.56C326.353 286.56 326.209 286.56 326.065 286.704C323.905 287.712 321.745 289.152 320.017 290.88C319.585 291.312 319.153 291.744 318.721 292.176C318.289 292.608 317.713 292.608 317.281 292.176C316.849 291.888 316.849 291.168 317.137 290.736C317.569 290.304 318.001 289.728 318.433 289.296C320.593 286.704 322.609 283.968 324.193 280.944C324.481 280.656 324.625 280.224 324.481 279.792C324.481 279.792 324.337 279.648 323.617 279.936C322.321 280.368 321.169 281.088 320.017 281.808C319.441 282.384 318.865 282.816 318.145 283.248C317.713 283.536 317.137 283.536 316.849 283.104C316.417 282.672 316.561 282.096 316.849 281.664C317.425 281.088 318.001 280.656 318.577 280.224C319.873 278.928 320.881 277.488 321.601 275.76C321.889 275.04 321.889 274.32 321.745 274.32C321.601 274.32 321.313 274.32 320.593 274.896C319.009 276.048 317.713 277.344 316.417 278.784C316.129 279.216 315.409 279.216 314.977 278.928C314.545 278.64 314.401 277.92 314.833 277.488C315.697 276.336 316.417 274.896 316.705 273.312V273.168C316.417 273.312 316.273 273.456 315.985 273.6L306.769 280.8C306.337 281.088 305.617 281.088 305.329 280.656C305.185 280.512 305.041 280.224 305.185 279.936C304.753 279.36 304.321 278.784 303.601 278.352C303.313 279.648 303.169 281.088 303.313 282.384L303.745 282.528Z" fill="#231F20"/>
<path d="M541.199 237.6C541.199 237.6 597.791 319.824 566.975 327.888C545.519 333.504 501.311 327.312 484.463 320.4C467.615 313.488 460.271 308.016 460.271 308.016C460.271 308.016 442.127 308.304 443.855 303.84C444.863 301.248 447.599 299.664 450.335 299.952C450.335 299.952 441.695 299.952 442.415 295.776C443.135 291.6 450.335 292.32 450.335 292.32C450.335 292.32 437.807 289.152 440.831 286.416C443.855 283.68 450.191 285.12 450.191 285.12C450.191 285.12 441.695 284.4 441.695 280.656C441.695 274.464 468.479 278.784 473.951 283.248C479.423 287.712 518.879 291.888 524.639 291.888L508.799 254.736" fill="#FAFAFA"/>
<path d="M545.377 331.056C523.345 331.056 496.705 326.448 484.177 321.264C468.913 315.072 461.569 310.032 459.985 308.88C456.817 308.88 445.441 308.736 443.281 305.568C442.849 304.848 442.705 303.984 442.993 303.264C443.425 301.968 444.289 300.96 445.441 300.096C444.145 299.808 443.137 299.088 442.273 298.224C441.553 297.504 441.409 296.496 441.553 295.488C441.985 293.616 443.425 292.176 445.297 291.744C442.561 290.736 439.825 289.296 439.537 287.712C439.393 286.992 439.681 286.128 440.257 285.552C441.121 284.832 442.129 284.256 443.281 283.968C441.841 283.392 440.977 281.952 440.833 280.512C440.833 279.216 441.697 277.92 442.993 277.488C449.041 274.464 469.633 278.064 474.817 282.24C479.569 285.984 513.553 290.016 523.345 290.592L507.793 254.88C507.649 254.304 507.793 253.728 508.369 253.584C508.945 253.296 509.521 253.584 509.665 254.16L525.505 291.312C525.649 291.6 525.649 292.032 525.361 292.32C525.217 292.608 524.785 292.752 524.497 292.752C520.033 292.752 479.281 288.72 473.233 283.968C468.625 280.368 448.897 276.768 443.569 279.504C442.561 279.936 442.561 280.512 442.561 280.656C442.561 282.24 445.873 283.392 448.465 283.824C449.041 283.824 449.761 283.968 450.337 284.112C450.913 284.256 451.201 284.832 451.057 285.264C450.913 285.696 450.481 286.128 450.049 285.984C449.473 285.984 448.753 285.84 448.177 285.696C446.017 285.552 443.137 285.696 441.409 287.136L441.265 287.28C441.409 288.144 445.873 290.16 450.481 291.312C451.057 291.456 451.345 292.032 451.201 292.608C451.057 293.04 450.625 293.328 450.193 293.328C450.193 293.328 444.001 292.752 443.425 295.92C443.281 296.352 443.425 296.784 443.713 297.072C444.577 298.224 447.313 298.8 449.473 298.944C449.905 298.944 450.193 298.944 450.625 298.944C451.201 299.088 451.489 299.52 451.489 300.096C451.345 300.528 451.057 300.96 450.481 300.96C450.193 300.96 449.905 300.96 449.617 300.96C447.601 300.96 445.729 302.256 445.009 304.128C444.865 304.272 444.865 304.416 445.009 304.56C446.305 306.288 454.801 307.008 460.417 307.008C460.705 307.008 460.849 307.008 460.993 307.152C460.993 307.152 468.337 312.624 484.897 319.536C501.457 326.448 545.809 332.496 566.833 327.024C570.289 326.304 573.025 323.856 574.177 320.544C582.097 299.232 540.769 238.896 540.337 238.32C540.049 237.888 540.049 237.312 540.481 236.88C540.913 236.592 541.633 236.592 541.921 237.168C543.649 239.616 584.257 299.088 575.905 321.264C574.465 325.152 571.153 328.176 567.121 329.04C560.209 330.48 552.721 331.2 545.377 331.056Z" fill="#231F20"/>
<path d="M449.904 590.256C449.904 590.256 440.112 597.888 432.192 591.696C432.192 591.696 406.272 589.392 403.248 607.104H449.184L449.904 590.256Z" fill="#231F20"/>
<path d="M449.184 608.112H403.248C402.96 608.112 402.672 607.968 402.528 607.824C402.384 607.536 402.24 607.248 402.384 606.96C405.408 588.528 432.048 590.688 432.336 590.688C432.48 590.688 432.768 590.832 432.912 590.832C440.112 596.592 449.04 589.68 449.472 589.392C449.76 589.104 450.192 589.104 450.624 589.248C450.912 589.392 451.2 589.824 451.2 590.112L450.48 606.96C450.192 607.68 449.76 608.112 449.184 608.112ZM404.544 606.096H448.176L448.752 592.272C445.44 594.144 438.096 597.6 431.76 592.704C429.024 592.416 408 591.696 404.544 606.096Z" fill="#231F20"/>
<path d="M150.095 239.184H141.455V553.104H150.095V239.184Z" fill="#FAFAFA"/>
<path d="M150.24 554.256H141.6C141.024 554.256 140.592 553.824 140.592 553.248V239.328C140.592 238.752 141.024 238.32 141.6 238.32H150.24C150.816 238.32 151.248 238.752 151.248 239.328V553.248C151.248 553.824 150.816 554.256 150.24 554.256ZM142.608 552.24H149.232V240.192H142.608V552.24Z" fill="#D1D3D4"/>
<path d="M184.655 348.48H97.5352V309.6H184.655L198.623 329.04L184.655 348.48Z" fill="#FAFAFA"/>
<path d="M184.656 349.488H97.5363C96.9603 349.488 96.5283 349.056 96.5283 348.48V309.6C96.5283 309.024 96.9603 308.592 97.5363 308.592H184.656C184.944 308.592 185.232 308.736 185.52 309.024L199.488 328.464C199.776 328.752 199.776 329.328 199.488 329.616L185.52 349.056C185.232 349.344 184.944 349.488 184.656 349.488ZM98.5443 347.472H184.08L197.328 329.04L184.08 310.608H98.5443V347.472Z" fill="#D1D3D4"/>
<path d="M98.3996 294.768H185.52V255.888H98.3996L84.4316 275.328L98.3996 294.768Z" fill="#FAFAFA"/>
<path d="M185.52 295.776H98.3996C98.1116 295.776 97.8236 295.632 97.5356 295.344L83.5676 275.904C83.2796 275.616 83.2796 275.04 83.5676 274.752L97.5356 255.312C97.6796 255.024 97.9676 254.88 98.3996 254.88H185.52C186.096 254.88 186.528 255.312 186.528 255.888V294.768C186.528 295.344 186.096 295.776 185.52 295.776ZM98.9756 293.76H184.512V256.896H98.9756L85.7276 275.328L98.9756 293.76Z" fill="#D1D3D4"/>
</svg>
