<svg transform="scale(1)" version="1.1" id="eAVoYWPVod" xmlns="http://www.w3.org/2000/svg" xmlns:xlink="http://www.w3.org/1999/xlink" x="0px" y="0px" viewBox="0 0 500 500" xml:space="preserve" class="pbimage_pbimage__wrapper__image__0LEis false"><title>Finding a way 1</title><style type="text/css"> .st0{fill:#59BE4C;} .st1{fill:#FFFFFF;} .st2{fill:#000005;}
 .st2{fill:#030307f3;}
 .st1{fill:#FFFFFF;}
 .st0{fill:#3461ff;}</style><g id="character"><path class="st0" d="M304.6,252.2c0,0-35.2-13.9-52,0c-16.8,13.9-23.2,137.1-11.6,149.6s46.5-2.8,46.5-2.8L304.6,252.2z" fill="#3461ff"></path><path class="st0" d="M255.5,407.2c-6.8,0-11.7-1.7-14.9-5.1c-6.3-6.7-7-42.8-5.1-73.5s7.5-69.1,16.7-76.8
		c8.8-7.3,22.7-6.9,32.7-5.3c6.8,1.1,13.4,2.9,19.8,5.3l0.4,0.1v0.4l-17.2,147.1l-0.3,0.1c-6.1,2.6-12.5,4.6-19,6.1
		C264.4,406.6,259.9,407.2,255.5,407.2z M273.5,246.6c-7.6,0-15.1,1.5-20.6,6.1s-13.2,27.4-16.4,76.1c-2.4,36.7-0.3,67.3,4.8,72.8
		c10.7,11.5,42.4-1.4,45.7-2.8l17-146.1C301.6,251.7,287.4,246.6,273.5,246.6L273.5,246.6z" fill="#3461ff"></path><path class="st1" d="M399.6,220.5c0,0,5,3.2-22.7,6.8s-119.6-4.1-96.5-19.9S399.6,220.5,399.6,220.5z" fill="#FFFFFF"></path><path class="st2" d="M397.8,222c0.3,0.2-0.3-0.3-0.2-0.2c0.3,0.3,0,0,0-0.1c0.1,0.2,0,0.3,0-0.3c0,0.4,0.1-0.2,0.1-0.2
		c-0.2,0.4,0.3-0.4,0.1-0.2c-0.3,0.5,0.3-0.3,0.1-0.1s-0.6,0.5-0.2,0.1s-0.2,0.1-0.4,0.2s-0.9,0.4-0.5,0.2s-0.1,0-0.2,0.1l-0.6,0.2
		c-2.2,0.7-4.4,1.3-6.6,1.7c-5.8,1.2-11.8,2-17.7,2.5c-2.1,0.1-4.3,0.2-6.4,0.3h-1.6h-5.2c-11.2-0.1-22.4-0.7-33.5-1.8
		c-10.4-0.8-20.7-2.4-30.8-4.8c-2-0.5-3.9-1-5.9-1.7c-0.9-0.3-1.7-0.6-2.5-0.9l-1.1-0.4l-0.5-0.2c-0.3-0.1,0,0,0.1,0.1l-0.3-0.2
		c-1.2-0.6-2.3-1.3-3.3-2.1c-0.3-0.3,0,0,0,0l-0.2-0.2c-0.2-0.2-0.4-0.4-0.5-0.6s-0.2-0.4-0.4-0.5s0.2,0.4,0,0.1
		c0-0.1-0.1-0.2-0.1-0.3c-0.1-0.2-0.1-0.4-0.1-0.6c0-0.2,0,0.5,0,0.1c0-0.1,0-0.2,0-0.3c0-0.4,0.1-0.4,0-0.2
		c0.1-0.2,0.2-0.4,0.2-0.7c0.2-0.6-0.2,0.2,0.1-0.2l0.5-0.7c0.2-0.3,0.2-0.2-0.1,0.1c0.1-0.1,0.2-0.2,0.3-0.3
		c0.3-0.2,0.5-0.5,0.8-0.7s0.6-0.4,0.9-0.6c-0.4,0.3-0.2,0.1,0.1,0s0.3-0.2,0.5-0.3c0.3-0.2,0.7-0.4,1-0.6l0.5-0.3
		c0.3-0.1,0.6-0.2,0.1-0.1c1.7-0.7,3.4-1.2,5.2-1.6c0.5-0.1,0,0-0.1,0l0.4-0.1l0.7-0.1l1.5-0.2c1.1-0.2,2.1-0.3,3.2-0.4
		s2.2-0.2,3.4-0.2l1.8-0.1h0.8c0.1,0,1,0,0.6,0c5.3,0,10.5,0.2,15.7,0.7c11.4,1.2,22.7,2.9,33.9,5.3c10.1,2.1,20.1,4.4,30,7
		c5.4,1.4,10.8,2.9,16.2,4.5l0.7,0.2c1.2,0.3,2.6-0.1,3.4-1.1c0.5-0.6,0.5-1.5-0.1-2.1c-0.2-0.2-0.4-0.3-0.6-0.3
		c-4-1.2-8-2.3-12-3.4c-9.7-2.6-19.4-5-29.2-7.1c-11.8-2.6-23.7-4.8-35.7-6.2c-10.4-1.2-21.2-2.1-31.6-0.5c-4.1,0.5-8,1.7-11.7,3.5
		c-2.4,1.3-5.4,3.4-6.2,6.2c-1.7,6,7.6,9,11.7,10.3c9.7,3.2,20.1,4.6,30.2,5.8c11.7,1.4,23.5,2.2,35.3,2.5
		c10.3,0.4,20.6-0.2,30.8-1.6c3.6-0.6,7.3-1.2,10.8-2.1c2-0.5,4-1.1,5.9-2c1.5-0.7,4.3-2.6,2.9-4.6c-0.2-0.3-0.4-0.5-0.6-0.6
		c-1.1-0.6-2.5-0.4-3.5,0.4C397.2,220.1,396.8,221.3,397.8,222z" fill="#030307f3"></path><path class="st1" d="M273.2,382.9c5.2-5.6,7.7-13.3,6.8-20.9c-2.2-17.6-17.3-31-16.6-36.6s-6-8.3-15.7,4.6L262,348
		c0,0-23.9-43.6-33-44s-5.5,10.8-1.7,20.7c0,0-12,2.9-6,14.3c0,0-6.3,4.1-1.1,18.2s21.2,29.2,21.2,29.2" fill="#FFFFFF"></path><path class="st2" d="M275,384.1c3.2-3.4,5.5-7.6,6.7-12.1c2.2-8.2,0.1-16.8-3.5-24.2c-2.9-6.2-7.2-11.9-10.5-17.6
		c-0.6-1-1.1-2-1.5-3l-0.2-0.6c-0.2-0.6,0,0.1-0.1-0.2s-0.1-0.4-0.1-0.6s0-0.2,0-0.3c0-0.5,0,0.5,0,0.1c0.2-2.2-0.1-4.4-2-5.9
		c-2.2-1.7-5.3-1.2-7.6-0.2c-4.2,1.9-7.6,5.7-10.3,9.3c-0.7,0.7-0.7,1.9-0.1,2.7l12.5,15.8l1.8,2.3c1.5,1.8,5.5-0.2,4.3-2.4
		c-4.4-8-9.1-15.9-14.1-23.5c-3.4-5.4-7.2-10.5-11.3-15.3c-3.1-3.5-6.9-7.3-11.9-6.4c-11,1.9-4.4,17.6-2,23.7l2.1-3.1
		c-2.6,0.6-5.1,2-7,3.9c-3.8,3.8-3.4,9.1-1.1,13.6l0.9-2.6c-1.4,1.1-2.5,2.5-3.1,4.1c-1.7,4.3-1.2,8.9,0,13.2
		c2.8,10.4,9.9,19.4,17,27.3c1.8,2,3.6,4,5.6,5.8c0.9,0.9,2.4,1,3.4,0.2c0.9-0.6,1.5-2.2,0.6-3.1c-4.7-4.5-9-9.4-12.8-14.6
		c-3.1-4-5.7-8.4-7.7-13.1c-1.7-4.1-3-9-2-13.4c0-0.1,0.1-0.3,0.1-0.4s0.1-0.2,0.1-0.4c-0.1,0.2-0.1,0.3,0,0s0.3-0.6,0.4-0.9
		s0.3-0.5,0.4-0.8c-0.3,0.5,0,0,0.2-0.2s0.3-0.3,0.4-0.4c0.4-0.5-0.4,0.3-0.1,0.1c0.1-0.1,0.2-0.2,0.3-0.2c0.9-0.6,1.2-1.6,0.9-2.6
		c-0.6-1.1-1.1-2.3-1.3-3.5c-0.2-0.8-0.2-1.6-0.1-2.5c0.1-0.7,0.3-1.4,0.7-2c0.2-0.4-0.2,0.3,0.1-0.2l0.3-0.4
		c0.1-0.1,0.2-0.3,0.4-0.4s0.5-0.5,0.2-0.2s0.1-0.1,0.2-0.1l0.4-0.3c0.3-0.2,0.6-0.4,0.9-0.6s0.6-0.3,0,0c0.1-0.1,0.3-0.1,0.4-0.2
		l0.7-0.3c0.4-0.2,0.8-0.3,1.2-0.4c0.7-0.3-0.6,0.1-0.1,0c1.4-0.3,2.7-1.6,2.1-3.1c-1.5-3.9-3.1-7.9-3.6-12.1
		c-0.3-1.4-0.3-2.9,0.1-4.3c-0.1,0.3,0.1-0.3,0.2-0.4c0.3-0.6-0.1,0.3,0.1-0.1c0-0.1,0.4-0.4,0-0.1c0.1-0.1,0.8-0.5,0.3-0.2
		c0.1-0.1,0.3-0.1,0.4-0.2c0.5-0.2-0.3,0,0.3-0.1s1,0.1,1.6-0.1c0.2-0.1-0.6-0.2-0.1,0c0.1,0.1,0.3,0.1,0.5,0.2l0.3,0.1
		c0.3,0.1-0.5-0.3-0.2-0.1c0.1,0.1,0.3,0.2,0.4,0.2c0.4,0.2,0.7,0.5,1.1,0.7c0.4,0.3,0.7,0.5,1,0.8c-0.4-0.4,0.2,0.2,0.3,0.3
		l0.6,0.6c0.9,0.8,1.7,1.7,2.4,2.6c3.9,4.6,7.4,9.4,10.7,14.5c3.3,5,6.1,9.6,9.1,14.8c1.6,2.7,3.1,5.4,4.6,8.1l4.3-2.4l-12.5-15.8
		l-1.8-2.3l-0.1,2.7c1.3-1.8,2.8-3.5,4.4-5c0.5-0.5,1.1-1,1.7-1.4c0.3-0.2,0.6-0.4,0.8-0.6c0.1-0.1,1-0.6,0.7-0.4
		c0.5-0.3,1-0.5,1.6-0.7c0.3-0.1-0.1,0-0.1,0l0.4-0.1c0.1,0,0.9-0.1,0.6-0.1s0.2,0,0.3,0c0.6,0-0.1-0.1,0.1,0s0.6,0.2,0.2,0.1
		s0.2,0.2,0.3,0.2c-0.3-0.2-0.2-0.2,0,0c0,0.1,0.4,0.6,0.2,0.2s0,0.1,0.1,0.2s0.1,0.2,0.1,0.3c0.1,0.4,0-0.3,0-0.1
		c0.1,0.4,0.1,0.8,0.1,1.2c0-0.4,0,0,0,0.2c0,0.3-0.1,0.7,0,1c0.2,2,0.9,3.9,2,5.5c3.1,5.4,6.8,10.3,9.6,15.8
		c3.4,6.5,6.1,14.1,4.8,21.5c-0.6,3.3-1.8,6.5-3.7,9.4c-0.1,0.1-0.2,0.3-0.2,0.4l0,0l-0.5,0.7c-0.3,0.4-0.5,0.7-0.8,1.1
		s-0.5,0.6-0.8,0.9c-0.8,0.8-0.8,2.1,0,2.8c0.1,0.1,0.2,0.2,0.3,0.2c1.2,0.6,2.6,0.4,3.5-0.6L275,384.1z" fill="#030307f3"></path><path class="st2" d="M371.5,402c0,0,20.8-123.1-53.5-142.4c-49.2-12.7-80.3,135.7-80.3,135.7S322.8,434.5,371.5,402z" fill="#030307f3"></path><path class="st2" d="M373.9,401.5c0.8-4.5,1.2-9.1,1.6-13.6c1-11,1.3-22,0.9-33c-0.4-13.7-2.4-27.3-5.9-40.6
		c-3.7-13.2-9.5-26-18.6-36.3c-4.5-5.1-9.9-9.5-15.8-12.9c-3.2-1.8-6.5-3.3-9.9-4.6c-3-1.2-6.1-2-9.3-2.5
		c-10.8-1.4-20.8,4.1-28.4,11.4c-9,8.7-15.6,19.8-21.2,30.9c-6.3,12.8-11.7,26-16.2,39.5c-4,11.8-7.6,23.7-10.7,35.7
		c-1.7,6.5-3.3,13-4.8,19.6c-0.1,0.3-0.1,0.6-0.2,0.9c-0.1,0.2,0,0.4,0.1,0.5c3,1.4,6.1,2.6,9.2,3.8c7.6,2.9,15.3,5.5,23.2,7.8
		c10.5,3,21.1,5.3,32,6.7c11.7,1.7,23.6,1.9,35.4,0.7c11.9-1.4,23.6-4.7,34-10.6c1.3-0.7,2.5-1.5,3.7-2.3c0.5-0.4,1.5-1.1,0.5-1.5
		s-2.6,0.3-3.4,0.8c-9.2,6.1-19.4,9.5-30.3,11c-11.2,1.4-22.6,1.4-33.8,0c-10.7-1.3-21.3-3.4-31.7-6.3c-8-2.2-15.9-4.8-23.7-7.7
		c-2.5-0.9-4.9-1.9-7.2-2.8l-2.2-0.9c-0.3-0.1-0.9-0.5-1.1-0.5c-0.1,0-0.1,0-0.1-0.1l0.1,0.5c0.9-4.5,2-9,3.2-13.5
		c2.7-10.9,5.8-21.7,9.1-32.4c4.1-13.3,9-26.4,14.6-39.2c5.3-11.9,11.3-23.7,19.4-33.9c3.2-4.3,7.1-8,11.4-11.2
		c0.7-0.5,1.6-1.1,2.7-1.7c0.2-0.1,0.5-0.3,0.8-0.4l0.3-0.1c0.5-0.3-0.5,0.2,0,0s1-0.5,1.6-0.7c0.3-0.1,0.5-0.2,0.8-0.3
		s-0.6,0.2-0.1,0l0.4-0.2l0.7-0.2c0.2-0.1,1.2-0.3,0.4-0.1c0.5-0.1,1.1-0.3,1.6-0.4c0.2,0,1-0.2,0.3-0.1c0.3,0,0.6-0.1,0.9-0.1
		c2-0.3,4.1-0.2,6.1,0.1c3.3,0.6,6.4,1.6,9.5,2.9c6.5,2.6,12.6,6.2,17.8,10.9c10.2,8.9,17,20.9,21.5,33.4c4.6,12.9,7,26.5,8,40.1
		c0.9,11.7,0.9,23.5,0.1,35.2c-0.4,6.3-1,12.6-2,18.9c0,0.3-0.1,0.6-0.1,0.8C369,403.8,373.7,402.8,373.9,401.5z" fill="#030307f3"></path><path class="st1" d="M370.4,393.1c-2.5-7.3-1.6-15.2,2.2-21.8c9.1-15.2,28.4-21.3,30-26.8s8.8-5.1,12.5,10.6l-20.4,10.7
		c0,0,39.6-30.2,48.1-26.9s0.6,12.1-6.8,19.6c0,0,9.8,7.5-0.3,15.5c0,0,4.1,6.3-6.4,17.1s-31.2,18-31.2,18" fill="#FFFFFF"></path><path class="st2" d="M371.9,395c-1.1-3-1.5-6.1-1.4-9.3c0.3-5.9,2.4-11.6,6.2-16.2c5.8-7.4,13.9-12.2,21.6-17.4
		c2-1.4,4.8-3,5.7-5.3c0.8-1.9,1.9-3.8,4.2-3.4c0.5,0.1,1,0.3,1.5,0.6c0.2,0.1,0.5,0.3,0.7,0.5c0.1,0.1,0.3,0.4,0.4,0.4
		s-0.6-0.8-0.5-0.6c0.4,0.6,0.7,1.3,1,2c0.6,1.4,1.1,2.9,1.5,4.3c0.1,0.5,0.8,2.2,0.6,2.5c-0.2,0.2-0.5,0.3-0.8,0.4l-3.1,1.6
		l-16.5,8.6l3,4c6.2-4.8,12.7-9.3,19.2-13.6c5-3.4,10.2-6.5,15.5-9.3c2.2-1.2,4.4-2.2,6.8-3.1c1.6-0.7,3.4-1.1,5.1-1.1
		c1.1,0,2.2,0.4,3.1,1.1c0.1,0.1,0.3,0.3,0.5,0.4c-3.6-2.3-1.7-3.1-1.5-1.9c0.1,0.4,0.1,0.9,0.1,1.3c-0.1,0.9-0.3,1.8-0.7,2.7
		c-2,4.7-6.2,8.6-9.8,12.2c-0.4,0.4,2.4,3.7,2.9,4c0.1,0,0.1,0.1,0.2,0.2c0.2,0.2,0.5,0.5,0.7,0.6c0.6,0.6-0.5-0.5-0.4-0.6
		c0,0,0.6,1.6,0.7,1.7c1.1,3.9-1.4,7.3-4.3,9.6c-0.1,0.1,0.5,1.1,0.6,1.1c-0.1-0.1-0.4-1-0.3-0.4c0,0,0,0,0.1,0.2s0.1,0.4,0.2,0.6
		c0.3,1.2,0.3,2.4,0.1,3.5c-0.7,4.9-4.2,9.1-7.5,12.4c-6.8,6.7-15.6,11.2-24.2,15c-2.1,0.9-4.3,1.8-6.5,2.6c-0.2,0.1,1.2,2,1.3,2.2
		s1.3,2,1.7,1.9c6.2-2.2,12.3-5,18-8.4c4.6-2.5,8.9-5.6,12.7-9.2c3.4-3.4,6.9-7.6,7.6-12.5c0.4-2.1-0.1-4.3-1.2-6.1l0.5,1.1
		c2.1-1.7,4-3.8,4.5-6.5c0.3-1.9-0.1-3.7-1-5.4c-1.4-3-3.5-5.6-6-7.7l2.8,4c3.5-3.5,7.4-7.2,9.5-11.7c0.8-1.4,1.1-3,0.9-4.6
		c-0.8-2.2-2.1-4.2-3.8-5.7c-3.5-3.3-8-1.4-11.8,0.2c-5.6,2.6-10.9,5.5-16,8.9c-5.1,3.3-10.2,6.8-15.1,10.3
		c-2.7,1.9-5.3,3.8-7.9,5.8c-0.2,0.2,2.5,4.2,3,4l17.9-9.3l2.6-1.4V357c-0.8-3.9-2.3-7.7-4.5-11.1c-1.5-2.2-3.4-5.3-6-6.3
		c-1.4-0.6-3-0.2-3.9,0.9c-0.5,0.6-0.8,1.4-1.1,2.1c-0.3,0.7-0.7,1.3-1.3,1.9c-1.7,1.6-3.6,3.1-5.6,4.3c-2.6,1.8-5.3,3.4-7.9,5.3
		c-6.2,4.4-12.3,9.6-15.9,16.5c-3.2,6.1-4,14.2-1.5,20.7c0.4,0.9,1,1.8,1.7,2.6c0.3,0.4,0.6,0.8,1,1.1
		C371.6,394.9,372,395.2,371.9,395L371.9,395z" fill="#030307f3"></path><path class="st2" d="M296.3,240.7c0,0-20.2,0.8-22.2-7.7s10.4-4.6,10.4-4.6s-12-18.6,8.5-18.4c0,0,14.1-8.3,29-17.8
		s11.1-4.6,11.1-4.6s2.1-17.9,22.1-12.4s5,17.2,5,17.2s14.4,8.4,13.8,14.6s-3.9,0.2-3.9,0.2s-6.4,16.9-23.8,11.5l-20.5,19.2
		c0,0,4.8,9-3.1,16.2S293.7,251.9,296.3,240.7z" fill="#030307f3"></path><path class="st2" d="M295.5,238.6c-0.4,0-0.9,0-1.3,0h-0.6c-0.1,0-0.2,0-0.4,0c-0.7,0-1.4,0-2-0.1c-1.5-0.1-3-0.2-4.5-0.4
		c-1.5-0.2-3-0.5-4.4-0.9c-0.8-0.2-1.5-0.5-2.2-0.8l-0.4-0.2c-0.7-0.3,0.4,0.2-0.2-0.1c-0.4-0.2-0.7-0.4-1-0.6l-0.4-0.3
		c0.4,0.3,0.1,0.1,0,0c-0.3-0.2-0.5-0.4-0.7-0.7c0.4,0.4-0.2-0.3-0.3-0.4s-0.3-0.5-0.2-0.2s-0.1-0.4-0.2-0.4c-0.4-1-0.4-2.1,0.1-3.1
		c0.2-0.3,0-0.1,0,0c0.1-0.1,0.2-0.2,0.4-0.3c0.4-0.3-0.1-0.1,0.4-0.2c0.4-0.2,0.9-0.3,1.4-0.3c0.2,0,1.2,0,0.7,0c0.4,0,0.7,0,1,0.1
		c0.7,0.1,1.3,0.2,2,0.3l0.8,0.2c-0.3-0.1-0.3-0.1,0.1,0l0.6,0.2c1.8,0.6,3.4-0.8,2.3-2.6c-0.1-0.2-0.2-0.4-0.4-0.6l-0.2-0.3
		c-0.1-0.2,0.3,0.6,0,0c-0.2-0.3-0.3-0.6-0.5-1c-0.4-0.8-0.7-1.5-1-2.3c-0.2-0.4-0.3-0.9-0.5-1.3c0-0.1-0.2-0.8-0.2-0.5
		s-0.1-0.5-0.1-0.6c-0.2-1-0.3-1.9-0.3-2.9c0,0.4,0-0.3,0-0.4s0.1-0.5,0.1-0.7s0.1-0.4,0.2-0.6s0.1-0.2,0.1-0.3
		c0.2-0.5-0.2,0.3,0.1-0.1c0.2-0.4,0.4-0.8,0.7-1.2c0.2-0.3-0.1,0,0.3-0.3c0.2-0.2,0.4-0.4,0.7-0.6c1-0.7,2-1.2,3.2-1.4
		c1.7-0.2,3.4-0.4,5.1-0.4c0.7-0.2,1.3-0.5,1.9-0.9c2.5-1.5,5-3,7.5-4.5c4.1-2.5,8.2-5,12.4-7.6c4.6-2.8,9-5.9,13.7-8.5
		c1.2-0.7,2.5-1.3,3.7-1.9c0.2-0.1,0.4-0.1,0.6-0.2c0.5-0.2,0,0,0,0c0.3,0,0.5,0.1-0.2,0c-0.6-0.1-1.1-0.4-1.5-0.7
		c-0.4-0.4-0.6-0.8-0.8-1.3c0,0,0.1-0.6,0-0.3c0,0.1,0.3-0.5,0-0.1c-0.1,0.1-0.2,0.3-0.3,0.4l4.5,2.1c0.1-0.5,0.2-0.9,0.3-1.4
		c0.1-0.5,0.3-1,0.4-1.5l0.1-0.4c0.1-0.4-0.1,0.2,0-0.1s0.3-0.6,0.4-0.9c0.3-0.7,0.7-1.4,1.1-2c0.2-0.4,0.5-0.7,0.7-1
		c0.1-0.2,0.2-0.3,0.4-0.5s0.4-0.5,0.2-0.2c1.2-1.4,2.7-2.4,4.4-3.1c4.9-2,11.1-0.8,15.9,1.4c0.5,0.3,1.1,0.5,1.6,0.9
		c0.1,0.1,0.7,0.5,0.6,0.4s0.4,0.4,0.6,0.5s0.6,0.6,0.3,0.2c0.1,0.2,0.3,0.3,0.4,0.5s0.4,0.6,0.3,0.4s0.1,0.4,0.2,0.5
		c0.2,0.4,0-0.1,0.1,0.2c0,0.2,0.1,0.4,0.1,0.6c0,0.2,0,0.3,0,0.5s0-0.3,0,0v0.3c-0.1,0.4-0.1,0.7-0.2,1.1c0,0.2-0.1,0.3-0.2,0.5
		s0.1-0.3,0,0c0,0.1-0.1,0.2-0.1,0.3c-0.4,0.8-0.8,1.5-1.3,2.2c-0.2,0.3-0.5,0.6-0.7,0.9s0.2-0.2-0.1,0.2c-0.1,0.1-0.2,0.3-0.4,0.4
		c-0.5,0.6-1.1,1.1-1.8,1.6c-1.2,0.9-0.1,2.7,0.9,3.3c2.4,1.4,4.7,3,6.8,4.7c1.7,1.3,3.2,2.9,4.5,4.6c0.1,0.2,0.3,0.4,0.4,0.6
		l0.2,0.3c0,0-0.1-0.2,0,0c0.1,0.2,0.2,0.4,0.3,0.6c0,0.1,0.2,0.7,0.1,0.4c0.1,0.4,0.2,0.8,0.1,1.1c0-0.3-0.1,0.5-0.1,0.6
		c0,0.3-0.1,0.6-0.2,0.9c0,0.1,0,0.1-0.1,0.1c0.4,0,0.6-0.2,1-0.2c0.1,0,0.8,0.2,0.7,0.2c-0.2-0.1,0.2,0.2,0.2,0.2l-0.2-0.2
		c-0.3-0.3,0.2,0.3-0.1-0.1c-0.3-0.4-0.6-0.9-0.9-1.3c-0.6-1-3.4-2.2-4-0.6c-2.5,6.6-8.7,11.9-16,11.8c-1.4,0-2.9-0.2-4.3-0.6
		c-1.2-0.3-2.3-0.8-3.4,0s-1.8,1.7-2.7,2.5l-10.4,9.7l-7.4,6.9c-0.5,0.5-0.7,1.2-0.4,1.9c1,1.8,1.4,3.9,1.3,6
		c-0.1,3.7-2.5,8.1-5.8,9.5c-5.7,2.5-13.1-0.2-17.2-4c-2.3-2.1-3.9-4.8-3.1-8.1c0.5-2.3-4.1-4.2-4.6-1.6
		c-1.9,8.6,7.1,15.2,14.2,17.5c3.9,1.4,8.2,1.6,12.3,0.6c4.4-1.4,7.7-5.7,8.7-10.1c0.7-3.4,0.3-7-1.3-10.1l-0.4,1.9l18-16.8l2.6-2.4
		l-2.2,0.2c5.9,1.8,12,1.7,17.4-1.5c3.3-2.1,6-5,7.9-8.4c0.4-0.7,0.8-1.4,1.1-2.2l-4.1-0.6c0.9,1.6,2.4,3.4,4.3,3.8
		c3.4,0.7,4.3-3.4,3.7-6c-0.6-2.8-2.6-5.1-4.5-7c-2-2-4.2-3.7-6.5-5.3c-1.3-0.9-2.6-1.8-4-2.6l0.9,3.3c1.9-1.5,3.6-3.4,4.7-5.6
		c1-1.6,1.3-3.6,1.1-5.5c-0.6-2.6-2.1-4.8-4.4-6.2c-3.2-2-6.7-3.4-10.4-4.1c-3.1-0.7-6.3-0.8-9.4-0.3c-4.4,0.8-8.2,3.5-10.5,7.4
		c-1.3,2.1-2.2,4.5-2.5,6.9c-0.3,2.1,3,3.9,4.5,2.1c0.6-0.7,0.8-1.7,0.5-2.6c-1.2-2.9-4.5-2-6.6-1c-5.1,2.5-9.9,5.8-14.7,8.8
		c-5.1,3.2-10.3,6.4-15.5,9.5c-2.6,1.6-5.1,3.1-7.7,4.6l1-0.4c-5.2,0-11.8,1.3-13.2,7.2c-0.9,3.7,0.5,7.8,2.1,11.1
		c0.5,1,1,2,1.6,2.9l2.3-2.6c-4.6-1.5-13.7-2.4-13.3,4.9c0.5,8.4,11.5,10.5,18.1,11.1c2.5,0.2,5,0.3,7.4,0.2
		c0.9-0.1,1.5-0.8,1.5-1.7c0-0.2-0.1-0.4-0.1-0.6C297.9,239.3,296.7,238.6,295.5,238.6z" fill="#030307f3"></path><path class="st1" d="M364.9,266c13.2-13.9,3.3-56.1,3.3-56.1c-14.5,1.1-35.5-15.9-35.5-15.9c5.2,14.1-10.2,36.9-10.2,36.9
		c-4.3-12.6-17.2-13.6-17.4-1.7s11.1,14.2,11.1,14.2s-14.8,22.6-14.9,27.1c-0.1,4.9,24.4,26.7,34.1,4.5
		C335.4,275,353.4,278.1,364.9,266z" fill="#FFFFFF"></path><path class="st2" d="M367,267.2c6.1-6.5,7-16.7,7.1-25.3c0-8.7-0.8-17.4-2.5-26c-0.3-1.8-0.7-3.6-1.1-5.5c-0.3-1.4-2.4-2.2-3.7-2.1
		c-5.7,0.4-11.5-2-16.4-4.6c-4.7-2.4-9.2-5.2-13.5-8.4c-0.9-0.6-1.8-1.3-2.6-2s-4.6-1.8-3.8,0.4c2.1,5.8,0.6,12.6-1.4,18.2
		c-1.8,5.2-4.2,10.3-7.1,15c-0.6,1-1.2,1.9-1.8,2.9l4.6,1.1c-1.4-4.4-4.5-8.1-8.6-10.3c-3.2-1.6-7.7-2.3-10.6,0.3s-3.3,7.8-2.5,11.5
		c0.9,3.7,3.2,7,6.4,9.2c2.1,1.5,4.4,2.5,6.8,3.1l-2.5-2.3c-2.1,3.3-4.2,6.6-6.3,9.9c-2.9,4.8-6.2,9.8-8.1,15.2
		c-0.6,1.4-0.6,3,0.1,4.3c1.1,1.9,2.5,3.6,4.2,5.1c4.4,4.2,10.1,7.8,16.2,8.9c3.4,0.8,7,0.4,10.1-1.1c3.6-1.9,6-5.3,7.7-8.9
		l-2.2,0.5c7.7,1.3,15.7,0.3,22.8-3C361.6,271.9,364.5,269.8,367,267.2c1.4-1.5-3-3.7-4.2-2.5c-4.9,4.9-11.3,8-18.3,8.7
		c-2.3,0.3-4.6,0.4-6.9,0.2c-0.7,0-1.5-0.1-2.2-0.2c-0.3,0-1.4-0.2-0.2,0c-0.6-0.1-1.8-0.3-2.2,0.5c-1.2,3.1-3.3,5.8-6.1,7.7
		c-2.1,1.3-4.6,1.8-7,1.4c-0.5,0-1-0.1-1.5-0.3c-0.3-0.1-0.7-0.2-1-0.3c-0.1,0-0.5-0.1,0,0l-0.6-0.2c-1.2-0.4-2.3-0.9-3.3-1.5
		c-0.6-0.3-1.2-0.7-1.8-1l-0.5-0.3l-0.9-0.6c-1-0.7-2-1.6-3-2.4c-0.2-0.1-0.3-0.3-0.4-0.4c-0.2-0.2-0.4-0.4-0.6-0.6
		c-0.4-0.4-0.8-0.8-1.1-1.2s-0.6-0.7-0.8-1.1s0.1,0.2-0.1-0.2c-0.1-0.2-0.2-0.4-0.4-0.6c-0.1-0.3-0.3-0.6-0.4-0.8
		c0.1,0.4,0-0.3,0-0.5s0,0.1,0-0.1c0-0.1,0.1-0.3,0.1-0.4c0.1-0.4,0.2-0.8,0.4-1.2c1.8-5,4.8-9.6,7.6-14.1c2.2-3.7,4.5-7.3,6.8-10.9
		c0.7-1.1-2-2.2-2.5-2.3l-0.3-0.1l-0.3-0.1c-0.6-0.1,0.6,0.2,0,0c-0.4-0.1-0.8-0.3-1.1-0.4l-0.6-0.3c0.7,0.3-0.3-0.1-0.4-0.2
		s-0.5-0.3-0.8-0.4c-0.1,0-0.4-0.2,0,0c-0.1-0.1-0.2-0.2-0.3-0.2c-0.5-0.4-1-0.8-1.4-1.2c-1-1.1-1.8-2.3-2.4-3.7
		c-1.3-3.2-1.5-7.5,0.3-10.5c0.5-1,1.4-1.8,2.5-2.2c0.5-0.2,1-0.3,1.5-0.3c-0.3,0,0.5,0,0.7,0.1c-0.6-0.1,0.9,0.3,0.2,0.1
		c0.2,0.1,1.1,0.4,0.7,0.2c0.2,0.1,0.9,0.5,0.8,0.4c0.7,0.5,1.4,1.1,2,1.8c1.4,1.7,2.5,3.7,3.2,5.8c0.5,1.4,3.7,2.4,4.6,1.1
		c1.9-2.8,3.5-5.7,5-8.7c2.9-5.8,5.3-12,6.1-18.4c0.5-3.5,0.1-7.1-1-10.5l-3.8,0.4c2.8,2.2,5.7,4.3,8.7,6.2c5.8,3.9,12,7,18.6,9.1
		c3.6,1.2,7.3,1.7,11.1,1.5l-3.7-2.1c1.1,4.9,2,9.9,2.5,14.9c1.1,9.3,1.8,19,0,28.2c-0.9,4.4-2.4,9-5.5,12.3
		C361.4,266.3,365.9,268.5,367,267.2z" fill="#030307f3"></path><path class="st1" d="M342.1,254.1c0,0,16.8,23.1,30.9,16.5s4.9-26.1-15-28.9" fill="#FFFFFF"></path><path class="st2" d="M340,253.5c2.1,2.9,4.5,5.6,7.1,8.1c4.9,4.7,10.5,9,17.1,10.8c5.8,1.6,12.6,0.3,16.1-4.9
		c3.1-4.6,1.5-10.5-1.4-14.7c-5.1-7.1-13.7-11.2-22.2-12.5c-1-0.1-1.1,0.5-0.6,1.2c0.9,0.9,2,1.4,3.2,1.6c5.8,0.9,11.2,3.4,14.9,8.2
		c2.8,3.7,4.5,8.7,2.2,13.1s-7.8,6.8-12.5,5.9c-2.4-0.5-4.6-1.5-6.6-2.9c-2.1-1.4-4.1-3.1-6-4.9c-1.8-1.8-3.6-3.6-5.2-5.6
		c-0.3-0.3-0.6-0.7-0.8-1l-0.2-0.2c-0.3-0.3,0.1,0.2,0,0l-0.3-0.4l-0.5-0.7c-0.7-0.9-1.8-1.6-2.9-1.8
		C340.9,252.7,339.4,252.6,340,253.5L340,253.5z" fill="#030307f3"></path><path class="st1" d="M326.9,248.2c0.2,3.1,1.8,6,4.3,7.8" fill="#FFFFFF"></path><path class="st2" d="M324.5,247.5c0.1,1,0.3,2,0.6,2.9c0.9,2.4,2.4,4.5,4.5,6c0.5,0.4,1.1,0.6,1.8,0.8c0.5,0.2,1,0.2,1.6,0.1
		c1-0.4,0.3-1.3-0.3-1.7c-0.1-0.1-0.3-0.2-0.4-0.3l-0.2-0.1l0.1,0.1c-0.2-0.2-0.4-0.4-0.6-0.6s-0.2-0.2-0.3-0.3l-0.1-0.2
		c0.2,0.2,0.2,0.2,0.1,0.1s-0.3-0.4-0.4-0.6c-0.3-0.4-0.5-0.8-0.7-1.3l-0.1-0.3c0-0.1-0.1-0.1-0.1-0.2l0,0.1
		c-0.1-0.2-0.1-0.4-0.2-0.6c-0.3-0.9-0.5-1.8-0.5-2.7c0-0.4-0.6-0.8-0.8-1c-0.5-0.4-1.1-0.7-1.8-0.8
		C326,246.9,324.5,246.6,324.5,247.5L324.5,247.5z" fill="#030307f3"></path><path class="st2" d="M342.5,232.8c-0.4,1,0,2.2,1,2.6c0.1,0,0.2,0.1,0.4,0.1c2.2,0.6,2.9-2.1,1.2-3.2c-0.7-0.6-1.8-0.5-2.4,0.2
		C342.6,232.6,342.6,232.7,342.5,232.8z" fill="#030307f3"></path><path class="st2" d="M355,234.7c-0.4,1,0,2.2,1.1,2.6c0.1,0,0.2,0.1,0.4,0.1c2.2,0.6,2.9-2.1,1.1-3.2c-0.7-0.6-1.8-0.5-2.4,0.2
		C355.1,234.6,355,234.7,355,234.7z" fill="#030307f3"></path><path class="st1" d="M435.4,317.4c0,0-47,11.3-50.3,10.2s-38.7-17.3-39.1-17.9s-49.6,0-49.6,0l-49.2-19.3c0,0-32.4,95.4-31.9,99.6
		s50.8,28.5,50.8,28.5l55-3.8l39,19c0,0,57.4,1,58.4-2.9S435.4,317.4,435.4,317.4z" fill="#FFFFFF"></path><path class="st2" d="M433.2,317.1c-9.2,2.2-18.4,4.3-27.7,6.3c-5.7,1.2-11.4,2.5-17.2,3.4c-0.5,0.1-1,0.1-1.4,0.2l-0.7,0.1H386
		c-0.4,0,0.4,0,0,0l-1,0.1c0.8-0.1,0.3,0,0.1,0c0.5,0,1,0,1.4,0.1c0.3,0,1,0.3,0.3,0L386,327c-0.8-0.3-1.7-0.7-2.5-1.1
		c-11-4.8-22-9.7-32.8-15l-1.1-0.5l-0.5-0.2L349,310c-0.3-0.1-0.5-0.4-0.8-0.5c-1.3-0.6-3.1-0.5-4.5-0.5c-5.2-0.2-10.4-0.1-15.6-0.1
		c-10.6,0-21.1,0.1-31.7,0.3h-0.6l2.8,0.4l-16.6-6.5l-26.5-10.4l-6.1-2.4c-0.9-0.3-1.9-0.4-2.8-0.4c-0.4,0-1.7-0.1-1.9,0.4
		c-1.2,3.5-2.4,7-3.6,10.6c-2.8,8.4-5.6,16.7-8.4,25.1c-3.3,9.9-6.6,19.8-9.8,29.7c-2.7,8.2-5.3,16.4-7.8,24.7
		c-0.7,2.4-1.4,4.9-2,7.3c-0.3,1.2-0.7,2.2,0.2,3.2c1.9,2.1,4.8,3.6,7.1,5.1c4.1,2.5,8.2,4.7,12.4,7c8.4,4.5,17,8.8,25.6,13
		c1.8,0.9,3.5,1.9,5.3,2.6s4.9,0.2,7,0.1l26.6-1.8l23.6-1.6l1.3-0.1l-3.4-0.3l18.2,8.9l13.3,6.5c2.4,1.2,4.8,2.5,7.3,3.5
		c1.6,0.7,4.1,0.5,5.9,0.5c3.6,0,7.2,0.1,10.8,0.1c10.1,0,20.3-0.1,30.4-0.6c3.9-0.1,7.8-0.5,11.7-1.1c1.3-0.2,4.1-0.4,4.5-1.9
		c0.3-1.5,0.6-2.9,0.8-4.4c0.5-2.9,0.9-5.9,1.4-8.8c1.3-8.8,2.7-17.6,4-26.4c1.5-10.4,3.1-20.7,4.6-31.1c1.3-9.1,2.7-18.2,4-27.2
		c0.7-4.8,1.4-9.7,2.1-14.5l0.1-0.7c0.1-0.6-4.9-1.1-5-0.2c-1.1,7.8-2.3,15.5-3.4,23.3c-2.3,15.7-4.7,31.4-7,47.1
		c-1.9,12.6-3.8,25.3-5.8,37.9c-0.2,1.4-0.4,2.8-0.7,4.1c0,0.3-0.1,0.6-0.2,0.9c-0.1,0.2,0,0.1-0.2,0.2c-0.1,0.1-0.2,0.1-0.3,0.2
		c-0.3,0.2-0.1,0-0.2,0.1c-0.3,0.1-0.7,0.2-1,0.3l-0.4,0.1l-0.9,0.2c-0.6,0.1-1.1,0.2-1.7,0.2c-1,0.1-1.1,0.1-1.8,0.2
		c-3.4,0.3-6.8,0.5-10.2,0.6L397,433l-3.2,0.1c-2.1,0.1-4.2,0.1-6.2,0.1c-4,0.1-8,0.1-11.9,0.1c-5.2,0-10.4,0-15.6-0.1h-0.8l2.8,0.4
		l-16.5-8l-21.3-10.4c-0.6-0.3-1.2-0.6-1.8-0.8c-1.2-0.2-2.4-0.2-3.7-0.1l-7.7,0.5l-27.3,1.9c-6.2,0.4-12.5,0.8-18.7,1.3h-0.3
		l3.4,0.3c-9.6-4.7-19.2-9.5-28.7-14.5c-5.9-3.1-11.9-6.3-17.5-10c-1.3-0.9-3.1-1.9-4.1-3.3c-0.3-0.5-0.1-1.3,0-2
		c0.8-3.8,2-7.5,3.1-11.1c1.9-6.1,3.8-12.3,5.8-18.4c4.6-14.3,9.4-28.6,14.1-42.9c1.9-5.6,3.8-11.2,5.6-16.8c1-2.8,2-5.6,2.9-8.5
		c0-0.1,0.1-0.2,0.1-0.4h-4.7l14,5.5l24.8,9.7l8.4,3.3c1.6,0.7,3.3,1.1,5,1.1c6.2,0,12.4-0.1,18.6-0.2c8.5-0.1,17-0.1,25.4,0h1
		c0.5,0-0.6,0,0,0h0.5c0.5,0,1.1,0,1.6,0h0.6c0.6,0-0.7-0.1-0.1,0h-0.1c-0.2,0-0.4-0.1-0.6-0.1c-0.2-0.1-0.3-0.1-0.5-0.2
		c0.5,0.4,1.2,0.8,1.8,1c1.3,0.6,2.6,1.3,3.9,1.9c8.2,3.9,16.5,7.7,24.8,11.4c2.7,1.2,5.5,2.5,8.2,3.6c2.5,1,5.4,0.6,8.1,0.3
		c8.3-1.1,16.5-3.1,24.7-4.9c7.1-1.6,14.1-3.2,21.2-4.9l1.2-0.3c1-0.2-0.6-0.7-0.9-0.7C435.5,316.8,434.3,316.8,433.2,317.1z" fill="#030307f3"></path><path class="st1" d="M362.7,425.8c0-1.9,23.2-93.9,23.2-95.8" fill="#FFFFFF"></path><path class="st2" d="M364.9,426.7c0,0.4,0,0,0-0.1s0.1-0.4,0.1-0.6c0.1-0.7,0.3-1.4,0.5-2.1c0.5-2.4,1.1-4.8,1.7-7.2
		c1.8-7.6,3.7-15.1,5.6-22.7c2.2-9,4.5-18.1,6.7-27.1c1.9-7.9,3.9-15.7,5.8-23.5c0.6-2.6,1.3-5.3,1.9-7.9c0.4-1.3,0.7-2.6,0.9-4
		c0-0.2,0-0.3,0-0.5c0-1.1-4.5-2.9-4.5-1.8c0-0.4,0,0,0,0.1s-0.1,0.4-0.1,0.6c-0.1,0.7-0.3,1.4-0.5,2.1c-0.6,2.4-1.1,4.8-1.7,7.2
		c-1.8,7.6-3.7,15.1-5.6,22.7c-2.2,9-4.5,18.1-6.7,27.1c-1.9,7.9-3.9,15.7-5.8,23.5c-0.6,2.6-1.3,5.3-1.9,7.9
		c-0.4,1.3-0.7,2.6-0.9,4c0,0.2,0,0.3,0,0.5C360.5,426,364.9,427.7,364.9,426.7L364.9,426.7z" fill="#030307f3"></path><path class="st1" d="M346,310.3c-0.5,3.5-24.6,98.7-25.1,102.1" fill="#FFFFFF"></path><path class="st2" d="M343.6,310c-0.5,3.7-1.7,7.5-2.6,11.1c-2,8-4,16-6,24c-2.4,9.5-4.7,19-7.1,28.5c-2.1,8.3-4.1,16.6-6.2,24.9
		c-1.1,4.4-2.3,8.8-3.2,13.2c0,0.1,0,0.3-0.1,0.4c-0.4,2.7,4.6,2.9,4.9,0.5c0.5-3.7,1.7-7.5,2.6-11.1c2-8,4-16,6-24
		c2.4-9.5,4.7-19,7.1-28.5c2.1-8.3,4.1-16.6,6.2-24.9c1.1-4.4,2.3-8.8,3.2-13.2c0-0.1,0.1-0.3,0.1-0.4
		C348.9,307.9,343.9,307.6,343.6,310L343.6,310z" fill="#030307f3"></path><path class="st1" d="M295,310.3c-0.5,3.3-27,102.4-27.5,105.6" fill="#FFFFFF"></path><path class="st2" d="M292.8,309.1c-0.2,1.2-0.5,2.4-0.8,3.5c-0.7,2.6-1.4,5.3-2,7.9c-2.2,8.3-4.3,16.6-6.5,24.8l-7.8,29.5
		c-2.3,8.7-4.5,17.3-6.8,25.9c-0.8,2.9-1.5,5.9-2.3,8.8c-0.4,1.5-0.9,3.1-1.2,4.7c0,0.1-0.1,0.3-0.1,0.4c-0.2,1.6,4,4.1,4.3,2.4
		c0.2-1.2,0.5-2.4,0.8-3.5c0.7-2.6,1.3-5.3,2-7.9c2.1-8.3,4.3-16.6,6.5-24.8c2.6-9.8,5.2-19.7,7.8-29.5c2.3-8.7,4.5-17.3,6.8-25.9
		c0.8-2.9,1.5-5.9,2.3-8.8c0.4-1.5,0.9-3.1,1.1-4.7c0-0.1,0.1-0.3,0.1-0.4C297.3,309.8,293.1,307.3,292.8,309.1L292.8,309.1z" fill="#030307f3"></path><path class="st1" d="M433.7,368.9c0,0-11.8-1.3-10.6-6.8c1.4-6.8,11.2-6.2,14.9-1.3" fill="#FFFFFF"></path><path class="st2" d="M433.8,366.8c-1.1-0.1-2.3-0.3-3.4-0.6l-0.3-0.1l0.2,0.1l-0.8-0.2c-0.5-0.2-1-0.3-1.5-0.5
		c-0.2-0.1-0.4-0.2-0.6-0.3l-0.4-0.2c-0.5-0.2,0.6,0.3,0.1,0.1s-0.9-0.5-1.3-0.8s0.4,0.4,0.1,0.1c-0.1-0.1-0.2-0.2-0.2-0.2l-0.1-0.2
		c-0.3-0.3,0.1-0.1,0.1,0.1l-0.3-0.6c0.2,0,0.1,0.6,0.1,0.2c0-0.1-0.1-0.3-0.1-0.4c-0.1-0.4,0,0.5,0,0.1c0-0.1,0-0.2,0-0.4
		s0.2-0.8,0-0.3c0.1-0.3,0.2-0.6,0.3-0.9c0.1-0.1,0.1-0.3,0.2-0.4c0.2-0.4-0.3,0.3,0,0s0.3-0.5,0.5-0.7s0.2-0.2,0.3-0.3
		c-0.2,0.3-0.2,0.2-0.1,0.1s0.5-0.3,0.7-0.5s0.2-0.1,0.4-0.2c-0.5,0.3-0.1,0,0.1,0c0.2-0.1,0.5-0.2,0.8-0.3c0.1-0.1,0.3-0.1,0.4-0.1
		c-0.6,0-0.2,0,0,0l0.8-0.1h0.5c0.7,0-0.3,0,0.1,0s0.6,0,0.9,0.1c0.3,0.1,0.7,0.2,1.1,0.2c0,0-0.6-0.2-0.2,0l0.6,0.2
		c0.3,0.1,0.7,0.3,1,0.4s0.2,0.2-0.2-0.1c0.2,0.1,0.4,0.2,0.5,0.3c0.3,0.2,0.5,0.4,0.8,0.6s0.1,0.3-0.1-0.1c0.1,0.1,0.3,0.3,0.4,0.4
		c0.2,0.3,0.5,0.5,0.7,0.8c0.9,1,2.3,1.2,3.5,0.5c1.1-0.8,0.9-2,0.2-3c-3.7-4.9-12.5-6.6-17.1-2c-2,2-2.9,5.5-1.2,8
		c1.6,2.3,4.2,3.5,6.8,4.3c1.7,0.6,3.5,1,5.4,1.2c1.2,0.3,2.3-0.5,2.5-1.6c0,0,0-0.1,0-0.1C436.1,368.1,435.1,367,433.8,366.8
		L433.8,366.8z" fill="#030307f3"></path><path class="st1" d="M430.6,380.2c0,0-9.3,1.3-11.9-4.8s10.5-8.5,16.9-1.4" fill="#FFFFFF"></path><path class="st2" d="M432.6,379.3h-0.3c-0.1,0-0.5,0-0.2,0h-0.5c-1,0-1.9,0-2.9-0.1c-2.4-0.1-4.7-1.1-6.5-2.8
		c-1.4-1.5-2.3-3.8-0.8-5.4c0.1-0.1,0.2-0.2,0.4-0.3l0.2-0.1c0.3-0.2-0.3,0.1,0.1-0.1c-0.5,0.2-1,0.4-1.5,0.6c0.3-0.1,0,0,0,0
		l0.4-0.1c1.2-0.2,2.4-0.3,3.6-0.1c3.3,0.3,6.3,1.8,8.5,4.2c0.3,0.4,2.1-0.5,2.4-0.6c0.2-0.1,2.4-1.1,2.2-1.2
		c-2.2-2.4-5.2-3.9-8.4-4.2c-3.5-0.3-7.1,0.4-10.2,2.1c-2,1.1-4,2.8-3,5.3c1.1,2.7,3.8,4.2,6.6,4.7c1.9,0.4,3.9,0.4,5.8,0.2
		c1.1-0.2,2.2-0.6,3.2-1.2C432.1,379.9,433.5,379.1,432.6,379.3L432.6,379.3z" fill="#030307f3"></path><path class="st1" d="M225.1,335.1c0,0,11.3,3.6,12.5-1.9c1.5-6.8-7.7-10.2-13-7.2" fill="#FFFFFF"></path><path class="st2" d="M224.5,337c1.5,0.4,3,0.8,4.5,1c2.5,0.4,5.3,0.6,7.7-0.4c1.3-0.5,2.4-1.5,3-2.8c0.6-1.4,0.7-3,0.3-4.5
		c-0.7-3.2-3.6-5.4-6.5-6.5c-3.5-1.4-7.4-1.1-10.7,0.6c-1.1,0.6-0.7,2.2,0.1,2.9c1,0.8,2.4,1,3.5,0.3c-0.3,0.2-0.2,0.1,0,0l0.4-0.2
		c0.3-0.1,0.6-0.2,0.9-0.3c0.5-0.2-0.4,0.1,0,0l0.5-0.1c0.3-0.1,0.6-0.1,0.9-0.1c0.1,0,0.6,0,0.2,0s0.1,0,0.2,0c0.3,0,0.6,0,0.9,0.1
		l0.4,0.1h0.2c-0.4-0.1,0.1,0,0.2,0l0.5,0.1c0.3,0.1,0.5,0.2,0.8,0.3c0.4,0.1-0.5-0.2-0.1,0l0.4,0.2c0.3,0.1,0.5,0.3,0.7,0.4
		l0.2,0.1c0.3,0.2-0.2-0.1-0.2-0.1c0.1,0.1,0.2,0.2,0.4,0.3c0.2,0.2,0.4,0.4,0.6,0.6s-0.3-0.4,0,0c0.1,0.1,0.2,0.2,0.3,0.4
		c0.1,0.1,0.2,0.2,0.2,0.3l0.1,0.2c0.1,0.2-0.1-0.2-0.1-0.2c0.1,0.3,0.2,0.6,0.3,0.9c0,0,0.1,0.4,0.1,0.4s-0.1-0.4,0-0.2
		c0,0.1,0,0.1,0,0.2c0,0.3,0,0.6,0,0.9c0,0.1,0,0.3,0,0.4s0-0.1,0-0.2c0,0.1,0,0.2,0,0.2c-0.1,0.3-0.1,0.5-0.2,0.8
		c0,0,0,0.1-0.1,0.1c-0.1,0.2,0.2-0.4,0.1-0.2s-0.1,0.2-0.2,0.3s-0.1,0.2-0.2,0.2c-0.2,0.3,0.3-0.2,0.1,0l-0.5,0.4
		c-0.3,0.2,0,0,0.1-0.1c-0.1,0-0.2,0.1-0.3,0.1c-0.2,0.1-0.4,0.2-0.7,0.2s0.5-0.1,0.1,0l-0.4,0.1c-0.5,0.1-1,0.1-1.5,0.1
		c0,0,0.6,0,0.3,0h-0.6l-0.9,0c-0.5,0-1-0.1-1.5-0.2l-0.8-0.1l-0.4-0.1c-0.3-0.1,0.7,0.1,0.1,0l-1.2-0.3c-0.4-0.1-0.8-0.2-1.2-0.3
		c-1-0.3-2.7-0.1-3,1.1C222.5,335.6,223.3,336.7,224.5,337L224.5,337z" fill="#030307f3"></path><path class="st1" d="M223.3,346.7c0,0,7.9,5,12.8,0.5s-6.2-12-14.9-8.2" fill="#FFFFFF"></path><path class="st2" d="M224.1,348.7c3.7,2.3,9.4,3.9,13.1,0.8c0.8-0.6,1.3-1.6,1.4-2.6c0-1.5-0.5-3-1.4-4.3c-1.6-2.7-4.1-4.7-7-5.8
		c-3.3-1.3-7-1.2-10.3,0.2c-0.6,0.2,0.6,2.2,0.8,2.5s1.2,2.1,1.8,1.8c2.6-1.1,5.5-1.3,8.3-0.7c1.2,0.3,2.4,0.7,3.5,1.3
		c0.5,0.3,0.9,0.6,1.4,0.9l0.2,0.2c-0.2-0.2,0.1,0.1,0.1,0.1l0.2,0.2c0.2,0.2,0.1,0.1-0.1-0.1l0.2,0.2c0.3,0.3-0.1-0.1-0.1-0.1
		c0.3,0.4-0.3-0.5-0.1-0.1c-0.1-0.2-0.3-0.4-0.4-0.7c0.2,0.4-0.1-0.4,0,0s0-0.2,0,0c0,0.1,0,0.2,0,0.3c0,0.2,0,0.3,0,0.5
		c-0.2,0.9-0.8,1.7-1.5,2.2c-2.2,1.4-4.9,1.8-7.3,1c-1.2-0.3-2.3-0.7-3.4-1.2L223,345l-0.2-0.1l-0.1,0l-0.4-0.2
		c-0.9-0.5-0.4,0.9-0.3,1.2C222.6,347,223.3,347.9,224.1,348.7L224.1,348.7z" fill="#030307f3"></path><path class="st1" d="M374.7,197.7c0,0,3.8-21.5-8.7-26.9c-8.4-3.6-42.4-7-51.1-3.6S304.1,194,304.1,194S277,204.8,276,210.6
		c0,0,18.9-1.5,49.3-2.1s74.3,11.9,74.3,11.9S385.6,201.4,374.7,197.7z" fill="#FFFFFF"></path><path class="st2" d="M376.8,198.8c1.1-6,0.8-12.2-1-18c-1.4-4.6-4.5-8.5-8.7-10.9c-3.2-1.7-7-2.4-10.6-3.1
		c-9.9-1.8-19.9-2.8-30-2.8c-3.9-0.1-7.8,0.2-11.7,0.9c-3.5,0.8-5.8,3.2-7.4,6.4c-1.9,3.9-3.3,8-4.1,12.3c-0.7,2.9-1.2,5.8-1.4,8.8
		c0,0.1,0,0.3,0,0.5l0.4-0.5c-3.2,1.3-6.3,2.6-9.4,4.1c-5.2,2.4-10.5,4.9-15.1,8.4c-1.6,1.2-3.6,2.6-4,4.7c-0.3,1.4,2.3,3,3.5,2.9
		c15.4-1.3,30.9-1.7,46.4-2c20.9-0.4,41.6,3.3,61.8,8c3.6,0.8,7.2,1.7,10.8,2.7l3.1,0.8l0.5,0.1c0.2,0.1-0.6-0.2-0.1,0l0.3,0.1
		c1.5,0.4,2.2-0.4,1.2-1.7c-5.3-7.4-11.5-14-18.6-19.6c-2.5-2-5.3-3.6-8.4-4.7c-0.8-0.3-1.9-0.3-1.7,0.8s1.6,2,2.5,2.4
		c2.1,0.8,4,1.9,5.8,3.2c2.1,1.6,4.2,3.4,6.1,5.3c3.3,3.3,6.4,6.8,9.3,10.4c0.6,0.8,1.2,1.6,1.8,2.4l1.2-1.7
		c-13.4-3.8-27-6.8-40.7-9c-10.6-1.9-21.4-2.9-32.2-3.1c-11.9-0.1-23.9,0.5-35.8,1.1c-5.3,0.3-10.6,0.6-15.9,1l3.5,2.9
		c0-0.2,0.1-0.4,0.2-0.6c0.2-0.4,0.4-0.7,0.7-1c0.6-0.7,1.3-1.4,2.1-1.9c2.2-1.6,4.5-3.1,6.9-4.3c4.7-2.6,9.6-4.8,14.6-6.9
		c1.1-0.5,2.2-0.9,3.3-1.4c0.2-0.1,0.4-0.3,0.4-0.5c0.4-6,1.7-11.8,3.7-17.5c1.2-3.1,2.9-7,6-8.6c2.6-1.4,6.1-1.4,9.1-1.5
		c9.5-0.3,19,0.3,28.4,1.8c2.1,0.3,4.2,0.7,6.2,1.1c0.9,0.2,1.8,0.4,2.7,0.6s1.2,0.3,1.9,0.5s1.2,0.4,1.8,0.6
		c0.7,0.3,1.3,0.6,1.8,1.1c0.6,0.5-0.3-0.3,0.3,0.2l0.5,0.5c0.3,0.3,0.5,0.6,0.7,0.9c0.5,0.7,1,1.5,1.4,2.3
		c1.8,3.8,2.3,8.3,2.2,12.4c0,2.3-0.2,4.6-0.5,6.8C372.2,198.1,376.5,200.6,376.8,198.8z" fill="#030307f3"></path><path class="st2" d="M370.7,191.9c-8.1-2.7-16.6-4.3-25.2-4.8c-9-0.6-18.1-0.4-27.1,0.7c-4.7,0.6-9.4,1.5-14,2.7
		c-1.2,0.2-2.2,0.8-3,1.7c-0.5,0.9,0.7,0.6,1.2,0.5c8-2,16.2-3.1,24.5-3.3c8.8-0.4,17.6,0.2,26.2,1.6c4.5,0.7,8.8,1.9,13.1,3.3
		c0.9,0.3,2.2-0.4,3-0.9C369.7,193.3,371.5,192.1,370.7,191.9L370.7,191.9z" fill="#030307f3"></path><path class="st0" d="M291.8,267c4.9,12.7,10.2,26.8,5.3,40.3c-0.4,1.2,1.1,2,2,2c1.2,0.2,2.4-0.5,2.9-1.6c5.1-14.2-0.4-29-5.6-42.2
		C295.6,263.2,290.8,264.5,291.8,267L291.8,267z" fill="#3461ff"></path><path class="st0" d="M347.4,277.3c0.6,5,1.5,10,1.9,15c0.4,5.2,0,10.5-1.3,15.5c-0.6,2.3,4.3,2.7,4.8,0.8c1.4-5.2,1.9-10.6,1.5-16
		c-0.4-5.2-1.3-10.3-2-15.4c-0.1-1.1-1.5-1.6-2.5-1.6C349.1,275.8,347.3,276.2,347.4,277.3L347.4,277.3z" fill="#3461ff"></path></g><g id="sign"><path class="st2" d="M128,69c0,3.2-0.1,6.4-0.1,9.6l-0.2,24.8c-0.1,12.1-0.2,24.1-0.3,36.2l-0.4,44.3c-0.1,16-0.3,32.1-0.4,48.1
		c-0.1,16.2-0.3,32.5-0.4,48.7c-0.1,15.2-0.3,30.3-0.4,45.5c-0.1,12.8-0.2,25.6-0.3,38.4l-0.2,27.9l-0.1,13.6v0.7c0,4.3,9,7.9,9,2.4
		c0-3.2,0.1-6.4,0.1-9.6c0.1-8.3,0.1-16.5,0.2-24.8c0.1-12.1,0.2-24.1,0.3-36.2l0.4-44.3l0.4-48.1c0.1-16.2,0.3-32.5,0.4-48.7
		c0.1-15.2,0.3-30.3,0.4-45.5c0.1-12.8,0.2-25.6,0.3-38.4c0.1-9.3,0.2-18.6,0.2-27.9c0-4.5,0.1-9.1,0.1-13.6c0-0.2,0-0.5,0-0.7
		C137,67.1,128,63.5,128,69L128,69z"></path><g id="sign-2"><path class="st1" d="M78.9,209.6c0,0,100.7,21.7,104.4,21.4s5.8-22.6,4.8-23.3s-99.7-20.9-104.4-21.4s-29.8,4.9-30.1,6
			S78.9,209.6,78.9,209.6z"></path><path class="st0" d="M80.1,211l18.3,4c13,2.8,26,5.5,39,8.2c12,2.5,24.1,5,36.1,7.4c3.2,0.6,6.4,1.3,9.7,1.7
			c0.9,0.3,1.9,0.2,2.7-0.2c1.9-1.3,2.4-4.7,2.9-6.8c0.7-3.4,1.3-6.8,1.5-10.2c0.1-1.4,0.2-2.7,0.2-4.1c0.1-0.8,0-1.6-0.2-2.4
			c-0.9-2.4-5.4-2.9-7.6-3.4c-10.3-2.3-20.7-4.4-31-6.6c-13.7-2.8-27.4-5.6-41.1-8.4c-8.9-1.8-17.8-3.7-26.8-5.2
			c-3.9-0.7-7.9,0.2-11.8,0.9s-7.4,1.4-11.2,2.2c-2.7,0.5-5.4,1.2-8.1,2.1c-0.4,0.1-1.2,0.4-1.4,0.8c-0.3,0.7,0.9,1.6,1.3,2
			c1.8,1.5,3.8,3,5.8,4.3c5.3,3.6,10.7,7.1,16.1,10.6c1.1,0.7,2.2,1.4,3.3,2.1c0.6,0.4,2.2,1.4,3,0.9s-0.6-1.6-1-1.8
			c-3.6-2.3-7.3-4.6-10.9-7c-2.8-1.8-5.6-3.6-8.3-5.5c-1.1-0.8-2.2-1.5-3.3-2.3l-0.7-0.5c-0.4-0.3,0.3,0.3-0.2-0.1l-1-0.8
			c-0.4-0.4,0.1,0.1,0,0c-0.2-0.3,0.1,0.2,0.1,0.1s0.1,0.5,0.1,0.4c0.1,0.1-0.2,0.1,0,0c0.7-0.2,1.5-0.6,2.2-0.8
			c2.9-0.9,5.9-1.5,8.9-2.2c3.6-0.8,7.2-1.4,10.8-2c1.4-0.2,2.9-0.4,4.4-0.6c0.6-0.1,1.1-0.1,1.7-0.1h0.7c0.1,0,0.9,0,0.4,0
			c2.2,0.3,4.4,0.6,6.5,1.1c4.7,0.9,9.3,1.8,13.9,2.7c13.1,2.6,26.1,5.2,39.2,7.9c11.7,2.4,23.4,4.8,35.1,7.3
			c1.8,0.4,3.6,0.8,5.4,1.2l1,0.2l0.5,0.1l1.4,0.4c0.2,0.1,0.5,0.2,0.8,0.2c-0.4-0.1-2.9-1.3-2.6-1.7c0,0,0-0.4,0,0.1
			c0,0.2,0,0.4,0.1,0.5c0.1,2.6-0.1,5.3-0.5,7.9c-0.3,3.3-0.9,6.5-1.8,9.6c-0.3,1.2-0.8,2.3-1.4,3.4c-0.2,0.3-0.4,0.5-0.6,0.7
			c-0.1,0-0.4,0.2-0.2,0.1s0,0,0,0c0,0-0.1,0-0.1,0c0.6-0.1,0.4,0,0.2,0l-0.5-0.1c-0.5-0.1-0.9-0.1-1.4-0.2c-1.5-0.2-3-0.5-4.5-0.8
			c-10.9-2-21.7-4.3-32.5-6.5c-13.1-2.7-26.3-5.5-39.4-8.3l-24.4-5.2l-1.2-0.3c-1-0.2-1.2,0.5-0.6,1.1
			C77.9,210.3,78.9,210.8,80.1,211z"></path><path class="st0" d="M170.1,297.7c0,0-75.5,2.1-78.1,0s-0.9-44,0-45s74.6-1,78.1,0s20.7,20.3,20.7,22.6S170.1,297.7,170.1,297.7z"></path><path class="st0" d="M169.4,295.4c-5.9,0.2-11.8,0.3-17.7,0.4c-11.6,0.2-23.1,0.5-34.7,0.5c-5.1,0-10.2,0-15.3-0.1
			c-1.8,0-3.7-0.1-5.5-0.2h-0.3c-0.3,0,0.4,0,0.1,0h-0.5l-1-0.1c-0.5,0-1-0.1-1.5-0.2s-1.2-0.4-0.4,0c-0.4-0.2,0.6,0.5,0.6,0.6
			c-0.1-0.1,0.4,0.7,0.2,0.3c-0.1-0.3,0.2,0.8,0.1,0.2c0-0.3-0.1-0.5-0.2-0.8c-0.2-0.5,0,0.5,0,0.1c0-0.2-0.1-0.4-0.1-0.6
			c-0.1-0.9-0.2-1.9-0.3-2.8c-0.4-5.4-0.3-10.9-0.2-16.4c0.1-5.3,0.3-10.9,0.6-16.4c0.1-1.7,0.2-3.4,0.4-5.1c0-0.2,0.1-0.4,0.1-0.6
			c0.1-0.6-0.1,0.1,0,0s-0.7,0.7-0.5,0.6c-0.6,0.3-0.4,0.1-0.1,0.1c7.4-0.5,14.8-0.5,22.2-0.6c11.8-0.1,23.6-0.1,35.4,0
			c4.6,0.1,9.1,0.1,13.7,0.3l2.4,0.1h1h0.3h0.3c0.4,0,0.9,0.1,1.3,0.1c0.1,0,0.3,0,0.4,0.1c0.4,0-0.1-0.1-0.1-0.1s0.8,0.5,0.6,0.3
			s0.2,0.2,0.3,0.2s0.4,0.3,0.6,0.5c0.9,0.7,1.7,1.5,2.6,2.3c2.3,2.1,4,4,6.1,6.3s4,4.5,5.9,6.9c0.7,0.9,1.5,1.9,2.1,2.8l0.4,0.5
			c0.4,0.5-0.3-0.5,0,0.1c0.2,0.3,0.3,0.5,0.4,0.8c-0.1,0.1-0.3-0.7-0.2-0.4c0,0.1,0,0.3,0-0.1s-0.1-0.9,0.1-1.1
			c-0.1,0.1-0.5,0.9-0.1,0.3c-0.5,0.7-1,1.4-1.5,2c-1.6,1.9-3.3,3.8-5.1,5.6c-3.8,4-7.7,7.9-11.6,11.8l-2.1,2.1
			c-1.6,1.6,1.2,5.6,3,3.9c2.7-2.6,5.3-5.3,8-7.9c4-3.9,7.8-8,11.4-12.3c1.1-1.4,2.1-2.8,1.6-4.6s-2.2-3.8-3.4-5.4
			c-3.9-5-8.2-9.7-12.7-14.1c-2.2-2.2-4.6-4.9-7.9-5.1c-3.5-0.3-7-0.3-10.5-0.4c-11.6-0.2-23.2-0.3-34.8-0.2c-9.6,0-19.3,0-28.9,0.5
			c-0.9,0-1.7,0.1-2.6,0.2c-1.3,0.2-1.6,1.2-1.7,2.4c-0.5,4.2-0.8,8.4-0.8,12.7c-0.2,6.3-0.4,12.6-0.3,18.9c0,2.6,0.1,5.1,0.3,7.7
			c0.1,1.8,0.3,3.6,0.8,5.3c0.3,1.5,1.5,2.7,3,3.1c1,0.2,2.1,0.3,3.1,0.4c4.2,0.3,8.3,0.3,12.5,0.4c11.9,0.1,23.8-0.1,35.6-0.3
			c8.5-0.2,17-0.3,25.5-0.6h1.4C173.3,300,171.7,295.3,169.4,295.4z"></path><path class="st0" d="M88,114.8c0,0,71.4-2.1,75.2-2.1s30.2,16.4,30.2,22.2s-26.9,22.9-26.9,22.9s-80.4,5-78.5,0s18-21.5,18-21.5
			L88,114.8z"></path><path class="st0" d="M88.6,117l21.6-0.6l38.2-1.1c4.2-0.1,8.5-0.2,12.7-0.3c0.9,0,1.8,0,2.6,0c0.1,0,0.2,0,0.3,0
			c-0.5,0.1-0.4-0.1-0.1,0l1.1,0.4c0.4,0.1-0.1-0.1-0.2-0.1l0.4,0.2l0.7,0.3c0.6,0.3,1.2,0.6,1.8,0.9c5.8,3,11.3,6.5,16.4,10.6
			c1.3,1,2.5,2,3.7,3.1l0.6,0.6c0.1,0.1,0.9,0.9,0.4,0.4c0.4,0.4,0.9,0.9,1.2,1.4c0.2,0.2,0.3,0.4,0.5,0.7c0.4,0.5-0.1-0.3,0.1,0.2
			l0.3,0.5c0.4,0.6,0-0.2,0.1,0.2s0.1-0.3,0,0s-0.1,0.7,0,0.1c-0.1,0.4-0.2,0.7-0.4,1.1c-0.2,0.4,0.2-0.3,0,0
			c-0.1,0.1-0.1,0.2-0.2,0.3l-0.4,0.6c-0.4,0.5-0.7,0.9-1.1,1.4c-0.9,1-1.9,2-2.9,2.9c-2.4,2.2-4.9,4.1-7.5,6.1
			c-4.2,3.1-8.5,6.1-12.9,9l-0.7,0.5l1-0.2c-4.1,0.2-8.2,0.5-12.4,0.7c-9,0.5-18.1,0.9-27.1,1.2s-18,0.5-26.9,0.3
			c-3,0-5.9-0.2-8.9-0.6l-0.4-0.1c-0.4-0.1,0.2,0,0.1,0c-0.2,0-0.5-0.1-0.7-0.1s-1.4-0.5-0.5-0.1l-0.3-0.2c0.3,0.2,0.5,0.4,0.7,0.6
			c0.3,0.4,0.5,0.8,0.5,1.3c0,0.5-0.1,0.4,0.1-0.1c0.1-0.1,0.1-0.3,0.2-0.4s-0.1,0.2,0.1-0.2s0.5-0.8,0.8-1.2c0.6-0.9,1.3-1.8,2-2.7
			c1.7-2.3,3.5-4.3,5.3-6.3c2.9-3.2,5.8-6.4,8.8-9.5l0.6-0.5c0.7-0.7,0.2-1.9-0.3-2.5l-15.8-18.9l-2.2-2.7c-0.7-0.8-2.1-1.6-3.2-1
			s-0.8,2.1-0.1,2.9l15.8,18.9l2.2,2.6l-0.3-2.5c-2.9,3-5.8,6.1-8.6,9.2c-2.1,2.4-4.2,4.8-6.2,7.3c-1.2,1.6-3,3.5-3.5,5.5
			c-0.5,1.6,0.9,3.1,2.2,3.7c1.2,0.5,2.5,0.9,3.8,1c3.6,0.5,7.3,0.7,11,0.7c11,0.2,22-0.2,33-0.6c9.1-0.3,18.2-0.8,27.3-1.3l3.1-0.2
			c0.6,0,1.3-0.1,1.9-0.3c1-0.6,2-1.2,2.9-1.9c2.1-1.4,4.1-2.8,6.2-4.2c5-3.4,9.7-7.1,14.1-11.2c1.6-1.4,2.9-3.1,3.9-5
			c0.7-1.7,0.4-3.6-0.6-5c-1.5-2.2-3.2-4.1-5.2-5.7c-2.3-2-4.8-3.9-7.3-5.6c-4.7-3.4-9.7-6.4-15-9c-1.4-0.8-2.9-1.3-4.5-1.4
			c-0.9,0-1.7,0-2.6,0l-11.4,0.3c-11.5,0.3-23.1,0.7-34.6,1l-25.1,0.7h-1.3C84.4,112.8,86.2,117,88.6,117z"></path></g><path class="st1" d="M122.9,142.8c3.5-2.6,6.4-6,8.5-9.8c1-1.9,1.9-3.8,2.5-5.8c0.3-1.1,0.6-2.2,0.8-3.3c0.3-1.1,0.4-2.2,0.2-3.3
		c-0.8-2.3-3.8-3.2-5.9-2.6c-1.8,0.5-3.3,1.8-4.2,3.4c-2,3.4-1.8,8.1-1.2,11.8c0.7,4.5,3.7,8.3,7.9,10c4.2,1.8,9,1.1,12.5-1.8
		c2.9-2.5,5.1-7.5,3.2-11.2c-2-4.1-8.9-4.2-10.3,0.5c-1.6,5.1,3.1,10,7.6,11.5c5,1.8,10.6-0.1,13.5-4.5c0.7-1-0.8-2.3-1.6-2.6
		c-1-0.6-2.3-0.3-3,0.6c-1.5,2.3-4.2,3.6-7,3.3c-2.6-0.5-4.5-2.5-4.9-5.1c-0.2-1.2,0.4-2.3,1.4-2.9l0.3-0.1c0-0.1-0.8-0.2-0.4-0.3
		s0.4,1.9,0.4,2.1c-0.2,2.8-1.8,5.2-4.1,6.6c-2.1,1.3-4.7,1.3-6.9,0.1c-2.5-1.4-3.5-4.3-3.8-7c-0.5-2.7-0.2-5.6,0.7-8.2
		c0.4-1,1.1-1.9,2-2.5c0.2-0.1,0.4-0.2,0.6-0.3l-1.2-0.8c0,0.3-0.1,0.5-0.1,0.8c-0.1,0.5-0.2,1-0.3,1.5c-1.5,6.8-5.4,12.8-11,16.9
		c-1,0.8,0,2.2,0.7,2.7c1,0.8,2.3,0.8,3.3,0.1L122.9,142.8z"></path><path class="st1" d="M117,267.4c2.1,2.2,3.5,4.9,4.3,7.9c0.4,1.3,0.5,2.7,0.5,4.1c0,0.7-0.2,1.5-0.4,2.2c-0.1,0.4-0.3,0.7-0.4,1.1
		c-0.3,0.6-1.3,1.4,0,0.6s0.5-0.3,0-0.2c-0.3,0-0.7,0-1,0c-0.6-0.1-1.2-0.3-1.7-0.7c-1.2-1-1.7-2.6-1.4-4.2c0.6-2.6,2.5-4.7,5.1-5.5
		c2.6-0.9,5.9-1.4,8.5-0.1c2.6,1.3,3.5,3.9,3.6,6.5c0.1,1.3-0.1,2.7-0.4,4c-0.1,0.3-0.2,0.5-0.3,0.8l-0.2,0.3c2.6-0.6,3.3-1.2,2-1.7
		c-0.4-0.5-0.7-1.1-0.9-1.8c-0.3-1.4-0.2-2.8,0.2-4.1c0.2-0.7,0.6-1.3,1-1.9c0.1-0.1,0.9-1.1,0.1-0.3c-0.5,0.3-0.5,0.3,0,0.1
		c0.3-0.1,0.6-0.1,0.8-0.2c3.3-0.4,6.2,1.8,7.8,4.5c0.9,1.5,1.5,3.1,1.8,4.7c0.2,0.8,0.3,1.7,0.4,2.5c0.1,0.4,0.1,0.8,0.1,1.1
		c0,0.2-0.1,0.5-0.1,0.7c-0.2,0.3-0.2,0.3,0,0.1l2.6-1.6l-0.2,0.1l1.1-0.4c-0.4,0-0.2-2.7-0.1-2.9c0.2-0.9,0.4-1.7,0.8-2.5
		c0.4-0.8,0.8-1.6,1.4-2.3c0.1-0.1,0.9-1,0.9-1s-1.1,0.5,0,0.1c1.1-0.4,2.1-1,3-1.8c0.6-0.6,0.6-0.9-0.3-0.5
		c-5.6,2.1-11,7.1-10,13.6l0.1,0c1.2-0.2,2.3-0.7,3.3-1.5c0.9-0.5,1.6-1.3,1.9-2.3c0.4-1.9-0.3-4.4-0.9-6.2
		c-1.2-3.8-4.3-7.5-8.6-7.5c-2.2,0.1-4.3,0.9-6.2,2.1c-2,1.1-3.6,2.7-4.7,4.8c-0.8,1.8-0.8,3.9-0.1,5.8c1,2.2,3.7,0.4,5-0.5
		c1.7-1.1,2.7-2.9,2.8-4.9c0.3-1.9,0.1-3.9-0.6-5.7c-1.6-4-6.1-4.5-9.9-3.8c-4.7,1-9,3.3-12.5,6.6c-1.5,1.3-2.5,3.1-2.8,5.1
		c-0.3,1.9,0.9,3.8,2.7,4.4c2.3,0.7,4.8-0.8,6.6-2c2-1.2,3.5-3.2,3.9-5.5c0.8-4.8-1.4-9.8-4.6-13.3c-0.6-0.7-4.5,2.3-4.3,2.6
		L117,267.4z"></path><path class="st0" d="M115.3,208.7c3.5-0.6,9.7,1.5,11.9-2.5s-3.6-6.9-6.8-6.2c-3.9,0.8-4.2,6-1.9,8.5c1.7,1.6,3.9,2.7,6.2,3
		c2,0.4,4.1,0.1,6-0.8c2-0.8,3.7-2.3,4.8-4.2c1-2.2-0.1-4.1-2-5.1c-0.6-0.4-3.1-1.6-3.7-0.8c-2.5,3.1-0.9,7.4,2,9.6
		c3.2,2.4,8.3,4.2,12.3,3.3c1.6-0.3,3.2-1.3,3.4-3c0.2-1.6-0.7-3-2.2-3.6c-1.2-0.6-5-2.3-5.2,0.1c-0.1,1.8,0.4,3.5,1.5,4.9
		c2.5,3.7,7.6,5.9,12,5.7c1.1-0.1-0.3-1-0.6-1.1c-1-0.6-2.1-1-3.3-1c-0.3,0-0.6,0-1,0s-0.4-0.2,0,0c-0.5-0.3-0.9-0.6-1.3-1
		c-1-0.9-1.8-2.1-2.2-3.4c-0.3-0.7-0.4-1.4-0.4-2.2c0-0.3,0.1-0.5,0.1-0.8c0.5-1-0.3-1.4-2.4-1.3l0.1,0.2c0.5,1.1,0.3,2.4-0.5,3.2
		c-1.8,1.8-5.2,1.5-6.9-0.2c-2.2-2.1-2.5-5.6-0.7-8l-3.7-0.8c0.4,0.2,0.5,1.5,0.5,2c-0.1,0.8-0.4,1.6-0.9,2.2
		c-1.1,1.4-2.6,2.5-4.3,3.2c-0.8,0.4-1.7,0.6-2.6,0.7h-0.8c0.9,0.5,1.2,0.5,0.7,0.2c-0.2-0.1-0.3-0.3-0.4-0.4
		c-0.9-1.2-1.2-2.7-0.9-4.2c0.1-0.7,0.4-1.3,0.8-1.9c0.3-0.4,0.8-0.8,1.3-1c0.2-0.1,0.4-0.2,0.6-0.2c1.1-0.2,0.3-0.5-2.2-0.9
		c0.1,0.3,0.4,0.6,0.5,0.9c0.1,0.3,0.1,0.6,0.1,0.9c0,0.7-0.2,1.3-0.6,1.9c-2.2,3.3-7.7,1.3-10.9,1.9c-1,0.2,0.2,0.9,0.5,1.1
		c1,0.6,2.1,1,3.3,0.9L115.3,208.7z"></path></g></svg>